<svg xmlns="http://www.w3.org/2000/svg" width="174.308" height="174.308" viewBox="0 0 174.308 174.308">
  <g id="pathways-badge-dynamic-leadership" transform="translate(-334 -74.23)">
    <path id="Path_649885" data-name="Path 649885" d="M173.308,87.384A86.154,86.154,0,1,1,87.154,1.23a86.153,86.153,0,0,1,86.154,86.154" transform="translate(334 74)" fill="#fff"/>
    <circle id="Ellipse_92" data-name="Ellipse 92" cx="86.154" cy="86.154" r="86.154" transform="translate(335 75.23)" fill="none" stroke="#39c2d7" stroke-miterlimit="10" stroke-width="2"/>
    <path id="Path_649886" data-name="Path 649886" d="M12.049,70.62l-.6,2.423-1.3-.324,1.6-6.423,1.3.324-.61,2.448,7.206,1.794-.387,1.553Z" transform="translate(334 74)" fill="#022a3a"/>
    <path id="Path_649887" data-name="Path 649887" d="M19.036,58.676c2.752,1.028,3.7,3.283,2.854,5.548-.864,2.313-3.175,3.115-5.586,2.215-2.521-.942-3.707-3.189-2.843-5.5.895-2.4,3.237-3.134,5.575-2.261M16.87,64.847c1.669.623,3.31.278,3.846-1.158s-.493-2.766-2.21-3.406c-1.547-.579-3.294-.357-3.854,1.141s.526,2.791,2.218,3.423" transform="translate(334 74)" fill="#022a3a"/>
    <path id="Path_649888" data-name="Path 649888" d="M22.481,56.245l1.848,1.822-.768,1.461-6.449-6.557.948-1.807,9.079,1.553-.8,1.518-2.566-.452Zm.1-2.782-2.23-.393c-.55-.1-1.146-.25-1.655-.371l-.012.024c.388.35.869.75,1.256,1.13l1.6,1.6Z" transform="translate(334 74)" fill="#022a3a"/>
    <path id="Path_649889" data-name="Path 649889" d="M26.52,50.519a4.429,4.429,0,0,0,1.651-1.439c.577-.85.5-1.593-.092-2-.549-.372-1.12-.225-2.08.474-1.241.9-2.393,1.236-3.436.528-1.184-.8-1.416-2.4-.352-3.974a4.624,4.624,0,0,1,1.548-1.495l.846,1.045a3.7,3.7,0,0,0-1.321,1.208c-.57.838-.366,1.51.054,1.8.559.379,1.1.135,2.135-.578,1.326-.937,2.377-1.121,3.421-.413,1.161.787,1.574,2.356.306,4.227a5.224,5.224,0,0,1-1.78,1.652Z" transform="translate(334 74)" fill="#022a3a"/>
    <path id="Path_649890" data-name="Path 649890" d="M27.394,39.673,25.806,41.6l-1.032-.852,4.209-5.1,1.033.852-1.6,1.945,5.723,4.722L33.119,44.4Z" transform="translate(334 74)" fill="#022a3a"/>
    <path id="Path_649891" data-name="Path 649891" d="M39.529,32.66c-.807-.8-1.782-1.752-2.576-2.629l-.029.027c.514.976,1.051,2.091,1.516,3.167l1.646,3.651-.906.839-3.4-1.951c-1.008-.59-2.05-1.256-2.965-1.9l-.018.018c.749.865,1.656,1.921,2.421,2.842l2.25,2.717-1.1,1.017-5.526-6.825L32.389,32.2l3.235,1.807c.926.542,1.834,1.119,2.658,1.684l.028-.027c-.473-.855-.987-1.85-1.436-2.833l-1.5-3.4L36.9,28.024l6.328,6.083-1.145,1.061Z" transform="translate(334 74)" fill="#022a3a"/>
    <path id="Path_649892" data-name="Path 649892" d="M44.685,30.037l.8,2.468-1.355.943-2.7-8.794L43.1,23.488l7.345,5.561-1.409.981-2.069-1.584Zm1.367-2.427-1.8-1.376c-.443-.341-.9-.75-1.3-1.092l-.021.015c.182.49.426,1.066.6,1.582l.678,2.157Z" transform="translate(334 74)" fill="#022a3a"/>
    <path id="Path_649893" data-name="Path 649893" d="M50.912,26.808a4.418,4.418,0,0,0,2.129-.517c.9-.487,1.177-1.182.837-1.811-.316-.582-.89-.715-2.064-.538-1.515.228-2.692-.007-3.292-1.115-.679-1.257-.147-2.787,1.522-3.689a4.632,4.632,0,0,1,2.061-.612l.27,1.317a3.687,3.687,0,0,0-1.73.462c-.891.482-1.02,1.172-.779,1.618.321.594.915.627,2.16.472,1.61-.221,2.625.1,3.225,1.21.667,1.234.31,2.815-1.678,3.89a5.193,5.193,0,0,1-2.34.645Z" transform="translate(334 74)" fill="#022a3a"/>
    <path id="Path_649894" data-name="Path 649894" d="M56.717,17.564l-2.306.958L53.9,17.286l6.112-2.54.514,1.237-2.33.968,2.849,6.856-1.477.614Z" transform="translate(334 74)" fill="#022a3a"/>
    <path id="Path_649895" data-name="Path 649895" d="M68.209,17.3l-3.163.953.743,2.466,3.536-1.066.38,1.257-5.068,1.528-2.53-8.392,4.881-1.472.379,1.258-3.349,1.01L64.671,17l3.162-.953Z" transform="translate(334 74)" fill="#022a3a"/>
    <path id="Path_649896" data-name="Path 649896" d="M69.746,12.013a15.236,15.236,0,0,1,2.342-.63,4.063,4.063,0,0,1,2.788.186,2.22,2.22,0,0,1,1.068,1.583A2.336,2.336,0,0,1,74.8,15.606l.006.039a2.228,2.228,0,0,1,1.517,1.432,17.444,17.444,0,0,0,1.133,2.272l-1.622.309a12.385,12.385,0,0,1-.961-1.922c-.456-1.077-.933-1.358-1.831-1.213l-.792.15.672,3.538-1.558.3Zm2.281,3.511.933-.178c1.06-.2,1.617-.889,1.455-1.745-.18-.945-.927-1.253-1.949-1.058a4.627,4.627,0,0,0-.956.26Z" transform="translate(334 74)" fill="#022a3a"/>
    <path id="Path_649897" data-name="Path 649897" d="M78.768,17.464a4.436,4.436,0,0,0,2.158.383c1.024-.084,1.554-.611,1.495-1.323-.054-.662-.527-1.013-1.674-1.324-1.481-.4-2.463-1.088-2.567-2.344-.118-1.425.984-2.612,2.876-2.767a4.628,4.628,0,0,1,2.135.267l-.283,1.315a3.686,3.686,0,0,0-1.77-.271c-1.011.083-1.406.663-1.364,1.168.055.673.586.943,1.789,1.3,1.562.446,2.364,1.149,2.468,2.406.115,1.4-.847,2.7-3.1,2.889a5.193,5.193,0,0,1-2.4-.349Z" transform="translate(334 74)" fill="#022a3a"/>
    <rect id="Rectangle_18862" data-name="Rectangle 18862" width="8.758" height="1.599" transform="translate(423.122 92.777) rotate(-87.782)" fill="#022a3a"/>
    <path id="Path_649898" data-name="Path 649898" d="M92.9,18.9l1.142-8.69,1.805.237,1.754,4.02a24.163,24.163,0,0,1,1.1,3.11l.026,0c.049-1.174.157-2.3.332-3.629l.4-3.03,1.469.193-1.141,8.69-1.638-.215-1.768-4.115a30.5,30.5,0,0,1-1.166-3.209l-.04.008c-.083,1.131-.22,2.279-.409,3.711l-.408,3.107Z" transform="translate(334 74)" fill="#022a3a"/>
    <path id="Path_649899" data-name="Path 649899" d="M105.277,13.472l-2.42-.609.327-1.3L109.6,13.18l-.327,1.3-2.445-.615-1.812,7.2-1.55-.391Z" transform="translate(334 74)" fill="#022a3a"/>
    <path id="Path_649900" data-name="Path 649900" d="M114.656,20.128,111.551,19l-.88,2.42,3.471,1.261-.449,1.234-4.974-1.807,2.993-8.238,4.791,1.74-.449,1.235-3.288-1.195-.772,2.127,3.1,1.128Z" transform="translate(334 74)" fill="#022a3a"/>
    <path id="Path_649901" data-name="Path 649901" d="M119.032,16.8a15.138,15.138,0,0,1,2.254.9,4.058,4.058,0,0,1,2.123,1.818,2.219,2.219,0,0,1-.092,1.908,2.339,2.339,0,0,1-2.391,1.28l-.017.035a2.228,2.228,0,0,1,.357,2.055,17.389,17.389,0,0,0-.453,2.5l-1.485-.724a12.348,12.348,0,0,1,.381-2.115c.28-1.137.067-1.647-.74-2.07l-.725-.354-1.581,3.238-1.426-.7Zm-.274,4.18.853.417a1.515,1.515,0,0,0,2.211-.527c.422-.866.009-1.559-.926-2.016a4.521,4.521,0,0,0-.923-.363Z" transform="translate(334 74)" fill="#022a3a"/>
    <path id="Path_649902" data-name="Path 649902" d="M122.084,28.017l4.762-7.354,1.527.99-.143,4.382a24.2,24.2,0,0,1-.342,3.278l.022.015c.548-1.04,1.13-2.009,1.858-3.133l1.66-2.565,1.244.806-4.762,7.353-1.386-.9.171-4.473a30.782,30.782,0,0,1,.326-3.4l-.04-.011c-.559.984-1.177,1.963-1.961,3.174l-1.7,2.629Z" transform="translate(334 74)" fill="#022a3a"/>
    <path id="Path_649903" data-name="Path 649903" d="M132.49,32.269,130.329,33.7l-1.273-1.05,7.74-4.971,1.574,1.3-3.379,8.568-1.323-1.092.967-2.42Zm2.7.664.842-2.1c.209-.518.478-1.07.7-1.544l-.021-.016c-.422.308-.911.7-1.362,1L133.46,31.5Z" transform="translate(334 74)" fill="#022a3a"/>
    <path id="Path_649904" data-name="Path 649904" d="M141.767,33.969l-1.746-1.781.956-.937,4.629,4.722-.956.936-1.765-1.8-5.3,5.193-1.119-1.142Z" transform="translate(334 74)" fill="#022a3a"/>
    <rect id="Rectangle_18863" data-name="Rectangle 18863" width="8.76" height="1.599" transform="matrix(0.767, -0.642, 0.642, 0.767, 474.202, 117.188)" fill="#022a3a"/>
    <path id="Path_649905" data-name="Path 649905" d="M150.725,49.926c-2.421,1.663-4.811,1.144-6.179-.848-1.4-2.035-.727-4.388,1.394-5.844,2.217-1.522,4.738-1.2,6.135.832,1.448,2.11.706,4.448-1.35,5.86m-3.807-5.314c-1.468,1.008-2.128,2.549-1.26,3.813s2.546,1.183,4.057.146c1.36-.935,2.182-2.491,1.277-3.81s-2.586-1.171-4.074-.149" transform="translate(334 74)" fill="#022a3a"/>
    <path id="Path_649906" data-name="Path 649906" d="M147.828,53.871l7.816-3.959.823,1.623-2.329,3.716a24.145,24.145,0,0,1-1.946,2.661l.012.023c1-.621,1.988-1.167,3.183-1.772l2.724-1.381.67,1.322-7.816,3.96-.746-1.473,2.4-3.78a30.725,30.725,0,0,1,1.991-2.772l-.029-.028c-.98.568-2.006,1.1-3.293,1.755l-2.795,1.416Z" transform="translate(334 74)" fill="#022a3a"/>
    <path id="Path_649907" data-name="Path 649907" d="M154.705,62.821l-2.591.123-.554-1.554,9.19-.3.686,1.921-7.293,5.621-.576-1.615,2.071-1.58Zm1.98,1.956,1.8-1.373c.445-.339.96-.674,1.393-.967l-.008-.024c-.521.048-1.14.131-1.682.158l-2.258.089Z" transform="translate(334 74)" fill="#022a3a"/>
    <path id="Path_649908" data-name="Path 649908" d="M163.016,68.081l.37,1.556-7.224,1.716.833,3.5-1.3.31-1.2-5.061Z" transform="translate(334 74)" fill="#022a3a"/>
    <path id="Path_649909" data-name="Path 649909" d="M36.564,131.34a16.2,16.2,0,0,1,1.82,1.794,5.335,5.335,0,0,1,1.6,3.355,3.917,3.917,0,0,1-1.519,3.155,4.539,4.539,0,0,1-3.52,1.278,5.854,5.854,0,0,1-3.518-2.189,17.324,17.324,0,0,1-1.338-1.7Zm-4.52,6.106a5.912,5.912,0,0,0,.555.689,3,3,0,0,0,4.71.275,2.782,2.782,0,0,0,.232-4.345,5.175,5.175,0,0,0-.79-.76Z" transform="translate(334 74)" fill="#022a3a"/>
    <path id="Path_649910" data-name="Path 649910" d="M41.944,140.453l-1.4,3.3c-.161.378-.382.824-.556,1.156l.028.027c.319-.205.717-.476,1.082-.709l2.98-1.873,1.283,1.138-4.048,2.175c-2.221,1.191-3.357,1.591-4.352,1.577a3.2,3.2,0,0,1-1.795-.5l.623-1.252a2.741,2.741,0,0,0,.993.29,2.771,2.771,0,0,0,1.315-.171.629.629,0,0,0,.267-.144.657.657,0,0,0,.138-.294l2.125-5.879Z" transform="translate(334 74)" fill="#022a3a"/>
    <path id="Path_649911" data-name="Path 649911" d="M45.36,145.86c.42-.594.763-1.1,1.046-1.567l1.145.81-.484.819.031.023a2.285,2.285,0,0,1,2.275.272c.9.639,1.422,1.883.265,3.516L47.469,152.8l-1.3-.922,2.064-2.917c.526-.743.648-1.5-.062-2a1.341,1.341,0,0,0-1.559.043,1.619,1.619,0,0,0-.353.386l-2.148,3.033-1.314-.931Z" transform="translate(334 74)" fill="#022a3a"/>
    <path id="Path_649912" data-name="Path 649912" d="M53.012,156.01l.249-.665-.035-.019a2.353,2.353,0,0,1-2.047-.163,1.878,1.878,0,0,1-.832-2.61c.771-1.4,2.4-1.422,4.444-.283l.05-.091c.2-.364.385-1.048-.594-1.587a3.345,3.345,0,0,0-1.717-.413l.229-1.061a4.576,4.576,0,0,1,2.273.614,2.368,2.368,0,0,1,1,3.6l-1.1,2a10.114,10.114,0,0,0-.654,1.376Zm1.311-2.81c-.978-.568-2.042-.872-2.506-.03a.839.839,0,0,0,.358,1.236,1.294,1.294,0,0,0,1.513-.161,1.148,1.148,0,0,0,.215-.282Z" transform="translate(334 74)" fill="#022a3a"/>
    <path id="Path_649913" data-name="Path 649913" d="M58.44,153.912c.259-.681.464-1.256.622-1.78l1.287.49-.272.9.037.014a2.19,2.19,0,0,1,2.205-.314,1.825,1.825,0,0,1,1.224,1.717l.024.009a2.4,2.4,0,0,1,1.011-.463,2.111,2.111,0,0,1,1.324.1c.984.374,1.726,1.422,1,3.316l-1.327,3.486-1.458-.555,1.244-3.267c.375-.984.257-1.7-.46-1.969a1.221,1.221,0,0,0-1.346.392,2.3,2.3,0,0,0-.262.47L61.948,160l-1.457-.555,1.3-3.426c.315-.825.209-1.533-.484-1.8a1.249,1.249,0,0,0-1.392.444,1.345,1.345,0,0,0-.27.453l-1.332,3.5-1.457-.555Z" transform="translate(334 74)" fill="#022a3a"/>
    <path id="Path_649914" data-name="Path 649914" d="M68.382,162.041l1.56-6.139,1.563.4-1.561,6.139Zm3.647-7.433a.9.9,0,1,1-.655-1.065.847.847,0,0,1,.655,1.065" transform="translate(334 74)" fill="#022a3a"/>
    <path id="Path_649915" data-name="Path 649915" d="M77.162,163.647a4.64,4.64,0,0,1-1.823.013,3.039,3.039,0,0,1-2.66-3.735,3.271,3.271,0,0,1,4.048-2.724,3.977,3.977,0,0,1,1.472.559l-.486,1.129a2.832,2.832,0,0,0-1.149-.451,2.05,2.05,0,0,0-.7,4.033,3.131,3.131,0,0,0,1.284-.027Z" transform="translate(334 74)" fill="#022a3a"/>
    <path id="Path_649916" data-name="Path 649916" d="M83.1,155.629l1.6.043-.2,7.424,3.6.1-.036,1.34-5.2-.14Z" transform="translate(334 74)" fill="#022a3a"/>
    <path id="Path_649917" data-name="Path 649917" d="M91.114,161.66a1.721,1.721,0,0,0,2.07,1.486,4.8,4.8,0,0,0,1.729-.419l.318,1.084a5.99,5.99,0,0,1-2.175.558,3,3,0,0,1-3.5-2.942,3.136,3.136,0,0,1,2.827-3.634c2.049-.157,2.853,1.478,2.959,2.865a3.813,3.813,0,0,1,0,.679Zm2.69-1.327a1.362,1.362,0,0,0-1.429-1.443,1.565,1.565,0,0,0-1.347,1.655Z" transform="translate(334 74)" fill="#022a3a"/>
    <path id="Path_649918" data-name="Path 649918" d="M101.472,163.07l-.23-.672-.038.008a2.354,2.354,0,0,1-1.688,1.169,1.879,1.879,0,0,1-2.3-1.494c-.289-1.574.959-2.622,3.262-3.033l-.018-.1c-.075-.409-.366-1.056-1.466-.854a3.358,3.358,0,0,0-1.591.768l-.495-.967a4.57,4.57,0,0,1,2.15-.963,2.367,2.367,0,0,1,3.052,2.149l.413,2.251a10.3,10.3,0,0,0,.365,1.479Zm-.764-3.006c-1.117.179-2.134.617-1.96,1.563a.839.839,0,0,0,1.06.731,1.294,1.294,0,0,0,1.069-1.082,1.122,1.122,0,0,0-.012-.355Z" transform="translate(334 74)" fill="#022a3a"/>
    <path id="Path_649919" data-name="Path 649919" d="M108.466,151.66l2.159,7.126c.188.622.417,1.286.566,1.689l-1.368.415-.351-.939-.026.007a2.275,2.275,0,0,1-1.645,1.693c-1.443.438-2.96-.446-3.526-2.312-.627-2.022.277-3.613,1.732-4.055a2.015,2.015,0,0,1,1.944.28l.026-.007-1.04-3.433Zm.076,5.762a2.312,2.312,0,0,0-.158-.387,1.4,1.4,0,0,0-1.646-.682c-.983.3-1.266,1.334-.923,2.465.335,1.107,1.127,1.75,2.1,1.456a1.411,1.411,0,0,0,.991-1.482,1.83,1.83,0,0,0-.086-.463Z" transform="translate(334 74)" fill="#022a3a"/>
    <path id="Path_649920" data-name="Path 649920" d="M113.795,156.537a1.718,1.718,0,0,0,2.439.73,4.734,4.734,0,0,0,1.5-.959l.653.922a5.973,5.973,0,0,1-1.874,1.235,3,3,0,0,1-4.263-1.641,3.134,3.134,0,0,1,1.489-4.354c1.885-.815,3.176.468,3.728,1.745a3.9,3.9,0,0,1,.22.641Zm2.109-2.13a1.36,1.36,0,0,0-1.818-.9,1.564,1.564,0,0,0-.736,2Z" transform="translate(334 74)" fill="#022a3a"/>
    <path id="Path_649921" data-name="Path 649921" d="M118.809,152.485c-.411-.752-.716-1.281-1.025-1.765l1.219-.667.626,1.035.046-.025a1.89,1.89,0,0,1,.867-2.016,1.649,1.649,0,0,1,.349-.146l.725,1.322a2.152,2.152,0,0,0-.436.179,1.409,1.409,0,0,0-.674,1.747,2.728,2.728,0,0,0,.193.458l1.572,2.872-1.4.768Z" transform="translate(334 74)" fill="#022a3a"/>
    <path id="Path_649922" data-name="Path 649922" d="M124.869,152.287a3.561,3.561,0,0,0,1.606-.517c.586-.386.689-.8.459-1.145s-.575-.4-1.377-.2c-1.266.323-2.074.046-2.471-.58a2.119,2.119,0,0,1,.9-2.979,3.7,3.7,0,0,1,1.608-.61l.364,1.115a2.834,2.834,0,0,0-1.318.435c-.478.316-.587.715-.373,1.041s.58.334,1.411.128c1.183-.284,1.951-.089,2.478.684.631.955.342,2.145-1.057,3.069a4.092,4.092,0,0,1-1.85.693Z" transform="translate(334 74)" fill="#022a3a"/>
    <path id="Path_649923" data-name="Path 649923" d="M125.288,142.658l1.245-1.023,2.394,2.912.02-.017a2.131,2.131,0,0,1,.15-1.066,2.16,2.16,0,0,1,.662-.914c.833-.686,2.161-.852,3.449.714l2.369,2.882-1.235,1.016-2.254-2.741c-.586-.713-1.284-1.031-1.967-.469a1.3,1.3,0,0,0-.385,1.477,1.365,1.365,0,0,0,.256.413l2.4,2.921-1.244,1.024Z" transform="translate(334 74)" fill="#022a3a"/>
    <path id="Path_649924" data-name="Path 649924" d="M133.079,137.287a.9.9,0,1,1-1.25.007.848.848,0,0,1,1.25-.007m4.46,6.973-4.437-4.518,1.151-1.129,4.436,4.517Z" transform="translate(334 74)" fill="#022a3a"/>
    <path id="Path_649925" data-name="Path 649925" d="M137.477,138.314c-.624-.55-1.149-.977-1.615-1.352l.928-1.054.783.586.017-.02a2.465,2.465,0,0,1,.6-2.367c.962-1.092,2.7-1.174,4.178.132,1.716,1.512,1.592,3.324.638,4.407a2.082,2.082,0,0,1-1.811.778l-.017.019,2.458,2.164-1.057,1.2Zm2.236-.16a1.637,1.637,0,0,0,.365.253,1.447,1.447,0,0,0,1.767-.314c.67-.76.431-1.767-.505-2.592-.838-.739-1.882-.931-2.56-.16a1.49,1.49,0,0,0-.058,1.854,1.423,1.423,0,0,0,.26.314Z" transform="translate(334 74)" fill="#022a3a"/>
    <path id="Path_649926" data-name="Path 649926" d="M144.977,87.769A57.824,57.824,0,1,1,87.154,29.946a57.823,57.823,0,0,1,57.823,57.823" transform="translate(334 74)" fill="#fff"/>
    <path id="Path_649927" data-name="Path 649927" d="M87.154,29.945a57.823,57.823,0,1,0,57.823,57.823A57.823,57.823,0,0,0,87.154,29.945m39.06,72.813a7.474,7.474,0,0,1-2.252,1.43c-2.494,19.747-11.424,21.967-15.3,21.967a11.347,11.347,0,0,1-7.736-3.167c-3.591,12.055-10.363,13.616-13.6,13.616s-10.021-1.561-13.611-13.623a11.34,11.34,0,0,1-7.725,3.161c-3.881,0-12.812-2.221-15.3-21.968a7.476,7.476,0,0,1-2.251-1.428c-2.886-2.651-3.808-7.266-2.9-14.522.973-7.814,3.848-12.85,7-16.1A16.441,16.441,0,1,1,81.665,57.714a16.146,16.146,0,0,1,11.317,0A16.444,16.444,0,1,1,122.108,72.13c3.159,3.251,6.035,8.288,7.009,16.106.906,7.256-.018,11.872-2.9,14.522" transform="translate(334 74)" fill="#022a3a"/>
    <path id="Path_649928" data-name="Path 649928" d="M72.4,72.543c3.84,2.144,8.2,6.678,9.4,16.259,1.4,11.255-2.52,11.51-4.129,11.169a.582.582,0,0,0-.706.522c-.309,3.774-2.2,20.969-10.972,20.969h-.007c-8.772,0-10.663-17.195-10.973-20.969a.582.582,0,0,0-.706-.522c-1.609.341-5.531.086-4.128-11.169,1.194-9.578,5.552-14.111,9.391-16.257" transform="translate(334 74)" fill="#004165"/>
    <path id="Path_649929" data-name="Path 649929" d="M72.4,72.543c3.84,2.144,8.2,6.678,9.4,16.259,1.4,11.255-2.52,11.51-4.129,11.169a.582.582,0,0,0-.706.522c-.309,3.774-2.2,20.969-10.972,20.969h-.007c-8.772,0-10.663-17.195-10.973-20.969a.582.582,0,0,0-.706-.522c-1.609.341-5.531.086-4.128-11.169,1.194-9.578,5.552-14.111,9.391-16.257" transform="translate(334 74)" fill="none" stroke="#004165" stroke-miterlimit="10" stroke-width="2"/>
    <path id="Path_649930" data-name="Path 649930" d="M54.216,62.679A11.768,11.768,0,1,1,65.985,74.448,11.769,11.769,0,0,1,54.216,62.679" transform="translate(334 74)" fill="#004165"/>
    <path id="Path_649931" data-name="Path 649931" d="M54.216,62.679A11.768,11.768,0,1,1,65.985,74.448,11.769,11.769,0,0,1,54.216,62.679Z" transform="translate(334 74)" fill="none" stroke="#004165" stroke-miterlimit="10" stroke-width="2"/>
    <path id="Path_649932" data-name="Path 649932" d="M115.077,72.555c3.84,2.145,8.2,6.678,9.4,16.259,1.4,11.255-2.52,11.51-4.129,11.169a.582.582,0,0,0-.706.522c-.309,3.774-2.2,20.969-10.972,20.969h-.007c-8.772,0-10.663-17.195-10.973-20.969a.582.582,0,0,0-.706-.522c-1.609.341-5.531.086-4.128-11.169,1.194-9.578,5.552-14.111,9.391-16.257" transform="translate(334 74)" fill="#004165"/>
    <path id="Path_649933" data-name="Path 649933" d="M115.077,72.555c3.84,2.145,8.2,6.678,9.4,16.259,1.4,11.255-2.52,11.51-4.129,11.169a.582.582,0,0,0-.706.522c-.309,3.774-2.2,20.969-10.972,20.969h-.007c-8.772,0-10.663-17.195-10.973-20.969a.582.582,0,0,0-.706-.522c-1.609.341-5.531.086-4.128-11.169,1.194-9.578,5.552-14.111,9.391-16.257" transform="translate(334 74)" fill="none" stroke="#004165" stroke-miterlimit="10" stroke-width="2"/>
    <path id="Path_649934" data-name="Path 649934" d="M96.89,62.691A11.769,11.769,0,1,1,108.659,74.46,11.769,11.769,0,0,1,96.89,62.691" transform="translate(334 74)" fill="#004165"/>
    <path id="Path_649935" data-name="Path 649935" d="M96.89,62.691A11.769,11.769,0,1,1,108.659,74.46,11.769,11.769,0,0,1,96.89,62.691Z" transform="translate(334 74)" fill="none" stroke="#004165" stroke-miterlimit="10" stroke-width="2"/>
    <path id="Path_649936" data-name="Path 649936" d="M72.4,72.543c3.84,2.144,8.2,6.678,9.4,16.259,1.4,11.255-2.52,11.51-4.129,11.169a.582.582,0,0,0-.706.522c-.309,3.774-2.2,20.969-10.972,20.969h-.007c-8.772,0-10.663-17.195-10.973-20.969a.582.582,0,0,0-.706-.522c-1.609.341-5.531.086-4.128-11.169,1.194-9.578,5.552-14.111,9.391-16.257" transform="translate(334 74)" fill="#004165"/>
    <path id="Path_649937" data-name="Path 649937" d="M72.4,72.543c3.84,2.144,8.2,6.678,9.4,16.259,1.4,11.255-2.52,11.51-4.129,11.169a.582.582,0,0,0-.706.522c-.309,3.774-2.2,20.969-10.972,20.969h-.007c-8.772,0-10.663-17.195-10.973-20.969a.582.582,0,0,0-.706-.522c-1.609.341-5.531.086-4.128-11.169,1.194-9.578,5.552-14.111,9.391-16.257" transform="translate(334 74)" fill="none" stroke="#39c2d7" stroke-miterlimit="10" stroke-width="2"/>
    <path id="Path_649938" data-name="Path 649938" d="M59.568,72.546a11.771,11.771,0,1,1,6.416,1.9,11.761,11.761,0,0,1-6.416-1.9" transform="translate(334 74)" fill="#004165"/>
    <path id="Path_649939" data-name="Path 649939" d="M59.568,72.546a11.771,11.771,0,1,1,6.416,1.9,11.761,11.761,0,0,1-6.416-1.9" transform="translate(334 74)" fill="none" stroke="#39c2d7" stroke-miterlimit="10" stroke-width="2"/>
    <path id="Path_649940" data-name="Path 649940" d="M115.077,72.555c3.84,2.145,8.2,6.678,9.4,16.259,1.4,11.255-2.52,11.51-4.129,11.169a.582.582,0,0,0-.706.522c-.309,3.774-2.2,20.969-10.972,20.969h-.007c-8.772,0-10.663-17.195-10.973-20.969a.582.582,0,0,0-.706-.522c-1.609.341-5.531.086-4.128-11.169,1.194-9.578,5.552-14.111,9.391-16.257" transform="translate(334 74)" fill="#004165"/>
    <path id="Path_649941" data-name="Path 649941" d="M115.077,72.555c3.84,2.145,8.2,6.678,9.4,16.259,1.4,11.255-2.52,11.51-4.129,11.169a.582.582,0,0,0-.706.522c-.309,3.774-2.2,20.969-10.972,20.969h-.007c-8.772,0-10.663-17.195-10.973-20.969a.582.582,0,0,0-.706-.522c-1.609.341-5.531.086-4.128-11.169,1.194-9.578,5.552-14.111,9.391-16.257" transform="translate(334 74)" fill="none" stroke="#39c2d7" stroke-miterlimit="10" stroke-width="2"/>
    <path id="Path_649942" data-name="Path 649942" d="M96.89,62.691A11.769,11.769,0,1,1,108.659,74.46,11.769,11.769,0,0,1,96.89,62.691" transform="translate(334 74)" fill="#004165"/>
    <path id="Path_649943" data-name="Path 649943" d="M96.89,62.691A11.769,11.769,0,1,1,108.659,74.46,11.769,11.769,0,0,1,96.89,62.691Z" transform="translate(334 74)" fill="none" stroke="#39c2d7" stroke-miterlimit="10" stroke-width="2"/>
    <path id="Path_649944" data-name="Path 649944" d="M93.74,83c3.839,2.144,8.2,6.678,9.4,16.259,1.4,11.255-2.519,11.51-4.128,11.169a.583.583,0,0,0-.707.522c-.308,3.774-2.2,20.969-10.972,20.969h-.006c-8.773,0-10.663-17.195-10.973-20.969a.582.582,0,0,0-.706-.522c-1.609.341-5.531.086-4.128-11.169,1.194-9.578,5.551-14.111,9.391-16.257" transform="translate(334 74)" fill="#39c2d7"/>
    <path id="Path_649945" data-name="Path 649945" d="M93.74,83c3.839,2.144,8.2,6.678,9.4,16.259,1.4,11.255-2.519,11.51-4.128,11.169a.583.583,0,0,0-.707.522c-.308,3.774-2.2,20.969-10.972,20.969h-.006c-8.773,0-10.663-17.195-10.973-20.969a.582.582,0,0,0-.706-.522c-1.609.341-5.531.086-4.128-11.169,1.194-9.578,5.551-14.111,9.391-16.257" transform="translate(334 74)" fill="none" stroke="#004165" stroke-miterlimit="10" stroke-width="2"/>
    <path id="Path_649946" data-name="Path 649946" d="M75.553,73.14A11.768,11.768,0,1,1,87.322,84.909,11.769,11.769,0,0,1,75.553,73.14" transform="translate(334 74)" fill="#39c2d7"/>
    <path id="Path_649947" data-name="Path 649947" d="M75.553,73.14A11.768,11.768,0,1,1,87.322,84.909,11.769,11.769,0,0,1,75.553,73.14Z" transform="translate(334 74)" fill="none" stroke="#004165" stroke-miterlimit="10" stroke-width="2"/>
    <path id="Path_649948" data-name="Path 649948" d="M87.8,92.143l1.621,4.99a.5.5,0,0,0,.476.346h5.247a.5.5,0,0,1,.295.905l-4.245,3.085a.5.5,0,0,0-.182.559l1.621,4.99a.5.5,0,0,1-.77.56l-4.245-3.084a.5.5,0,0,0-.588,0l-4.245,3.084a.5.5,0,0,1-.77-.56l1.621-4.99a.5.5,0,0,0-.182-.559l-4.245-3.085a.5.5,0,0,1,.295-.905h5.247a.5.5,0,0,0,.476-.346l1.621-4.99a.5.5,0,0,1,.952,0" transform="translate(334 74)" fill="#022a3a"/>
    <path id="Path_649949" data-name="Path 649949" d="M15.792,87.384A2.386,2.386,0,1,1,13.4,85a2.387,2.387,0,0,1,2.387,2.387" transform="translate(334 74)" fill="#004165"/>
    <path id="Path_649950" data-name="Path 649950" d="M163.289,87.384A2.387,2.387,0,1,1,160.9,85a2.387,2.387,0,0,1,2.387,2.387" transform="translate(334 74)" fill="#004165"/>
  </g>
</svg>
