<svg xmlns="http://www.w3.org/2000/svg" width="174.308" height="174.308" viewBox="0 0 174.308 174.308">
  <g id="pathways-badge-engaging-humor" transform="translate(-583.974 -74.23)">
    <path id="Path_649770" data-name="Path 649770" d="M423.281,87.384A86.154,86.154,0,1,1,337.127,1.23a86.153,86.153,0,0,1,86.154,86.154" transform="translate(334 74)" fill="#fff"/>
    <circle id="Ellipse_90" data-name="Ellipse 90" cx="86.154" cy="86.154" r="86.154" transform="translate(584.974 75.23)" fill="none" stroke="#dd8676" stroke-miterlimit="10" stroke-width="2"/>
    <path id="Path_649771" data-name="Path 649771" d="M293.788,145.682l-2.477-2.182-1.7,1.931,2.77,2.439-.867.985-3.969-3.5,5.79-6.572,3.822,3.368-.868.985-2.622-2.312-1.495,1.7,2.476,2.182Z" transform="translate(334 74)" fill="#022a3a"/>
    <path id="Path_649772" data-name="Path 649772" d="M295.957,146.615c.41-.6.743-1.114,1.019-1.587l1.16.791-.47.828.032.022a2.284,2.284,0,0,1,2.28.233c.914.623,1.457,1.858.328,3.512l-2.117,3.1-1.321-.9,2.014-2.954c.513-.752.622-1.512-.1-2a1.34,1.34,0,0,0-1.558.071,1.62,1.62,0,0,0-.347.393l-2.1,3.072-1.332-.908Z" transform="translate(334 74)" fill="#022a3a"/>
    <path id="Path_649773" data-name="Path 649773" d="M308.743,152.057c-.222.368-.485.818-.886,1.591l-1.655,3.184a3.052,3.052,0,0,1-4.679,1.671,4.485,4.485,0,0,1-1.727-1.47l.87-.911a3.8,3.8,0,0,0,1.416,1.278,1.682,1.682,0,0,0,2.5-.855l.252-.485-.023-.012a2.138,2.138,0,0,1-2.07-.021,2.809,2.809,0,0,1-.961-3.987c.96-1.846,2.741-2.341,4.091-1.639a2,2,0,0,1,1.171,1.722l.023.012.447-.72Zm-2.635,1.488a1.531,1.531,0,0,0,.151-.4,1.327,1.327,0,0,0-.679-1.511c-.8-.414-1.744-.027-2.338,1.115a1.689,1.689,0,0,0,.473,2.444,1.369,1.369,0,0,0,1.6-.254,2.773,2.773,0,0,0,.321-.478Z" transform="translate(334 74)" fill="#022a3a"/>
    <path id="Path_649774" data-name="Path 649774" d="M311.724,160.073l.154-.693-.037-.014a2.352,2.352,0,0,1-2.051.119,1.879,1.879,0,0,1-1.183-2.473c.572-1.494,2.184-1.739,4.366-.89l.037-.1c.149-.389.237-1.093-.807-1.493a3.363,3.363,0,0,0-1.758-.173l.081-1.083a4.553,4.553,0,0,1,2.338.3A2.369,2.369,0,0,1,314.351,157l-.819,2.138a10.037,10.037,0,0,0-.46,1.454Zm.913-2.965c-1.048-.429-2.144-.585-2.488.314a.839.839,0,0,0,.524,1.176,1.3,1.3,0,0,0,1.478-.367,1.148,1.148,0,0,0,.174-.309Z" transform="translate(334 74)" fill="#022a3a"/>
    <path id="Path_649775" data-name="Path 649775" d="M322.878,156.762c-.132.409-.288.906-.505,1.75l-.9,3.474a3.05,3.05,0,0,1-4.184,2.679,4.469,4.469,0,0,1-2.012-1.043l.641-1.083a3.822,3.822,0,0,0,1.668.927,1.683,1.683,0,0,0,2.241-1.4l.135-.529-.024-.007a2.136,2.136,0,0,1-2.022.445,2.809,2.809,0,0,1-1.833-3.668c.521-2.014,2.145-2.9,3.618-2.517a1.991,1.991,0,0,1,1.528,1.415l.025.006.275-.8Zm-2.232,2.042a1.6,1.6,0,0,0,.057-.429,1.329,1.329,0,0,0-1-1.319c-.869-.224-1.706.365-2.028,1.612-.269,1.044.041,2.024,1.011,2.275a1.365,1.365,0,0,0,1.5-.607,2.792,2.792,0,0,0,.206-.537Z" transform="translate(334 74)" fill="#022a3a"/>
    <path id="Path_649776" data-name="Path 649776" d="M323.867,163.347l1.048-6.243,1.59.267-1.048,6.242Zm3.02-7.7a.9.9,0,1,1-.74-1.007.846.846,0,0,1,.74,1.007" transform="translate(334 74)" fill="#022a3a"/>
    <path id="Path_649777" data-name="Path 649777" d="M328.5,159.6c.057-.726.092-1.335.1-1.883l1.4.111,0,.952.039,0a2.282,2.282,0,0,1,2.094-.93c1.1.087,2.184.889,2.027,2.884l-.3,3.744-1.593-.126.281-3.562c.071-.907-.211-1.62-1.079-1.689a1.342,1.342,0,0,0-1.318.835,1.621,1.621,0,0,0-.105.513l-.293,3.705-1.606-.127Z" transform="translate(334 74)" fill="#022a3a"/>
    <path id="Path_649778" data-name="Path 649778" d="M342.271,157.981c-.009.43-.014.95.02,1.82l.144,3.584a3.049,3.049,0,0,1-3.232,3.771,4.478,4.478,0,0,1-2.227-.419l.3-1.221a3.822,3.822,0,0,0,1.863.406,1.681,1.681,0,0,0,1.741-1.981l-.021-.546h-.027a2.133,2.133,0,0,1-1.806,1.009,2.807,2.807,0,0,1-2.812-2.983,3.032,3.032,0,0,1,2.736-3.452,2,2,0,0,1,1.872.914h.025l.031-.846Zm-1.548,2.6a1.575,1.575,0,0,0-.069-.427,1.327,1.327,0,0,0-1.34-.973c-.9.035-1.527.841-1.476,2.127.043,1.077.624,1.925,1.623,1.885a1.365,1.365,0,0,0,1.261-1.012,2.788,2.788,0,0,0,.042-.574Z" transform="translate(334 74)" fill="#022a3a"/>
    <path id="Path_649779" data-name="Path 649779" d="M348.639,154.64l.745,3.428,3.618-.787-.745-3.428,1.562-.34,1.861,8.557-1.562.34-.82-3.771-3.618.787.82,3.771-1.561.339-1.862-8.557Z" transform="translate(334 74)" fill="#022a3a"/>
    <path id="Path_649780" data-name="Path 649780" d="M363.269,157.514c.253.71.487,1.29.687,1.771l-1.324.472-.4-.881-.025.009a2.289,2.289,0,0,1-1.541,1.722c-1.09.388-2.314.093-3.007-1.856l-1.248-3.5,1.506-.537,1.157,3.247c.353.993.9,1.516,1.7,1.233a1.349,1.349,0,0,0,.864-1.219,1.454,1.454,0,0,0-.08-.5l-1.283-3.6,1.507-.536Z" transform="translate(334 74)" fill="#022a3a"/>
    <path id="Path_649781" data-name="Path 649781" d="M364.671,154.269c-.341-.643-.639-1.177-.929-1.642l1.218-.645.5.8.034-.018a2.193,2.193,0,0,1,1.219-1.867,1.824,1.824,0,0,1,2.1.212l.023-.012a2.385,2.385,0,0,1,.319-1.066,2.1,2.1,0,0,1,.949-.93c.93-.494,2.207-.361,3.157,1.432l1.747,3.3-1.379.73-1.638-3.091c-.493-.93-1.106-1.312-1.785-.952a1.221,1.221,0,0,0-.592,1.27,2.332,2.332,0,0,0,.181.508l1.777,3.355-1.378.73-1.717-3.24c-.414-.781-1.016-1.168-1.671-.821a1.249,1.249,0,0,0-.585,1.34,1.382,1.382,0,0,0,.163.5l1.753,3.309-1.378.731Z" transform="translate(334 74)" fill="#022a3a"/>
    <path id="Path_649782" data-name="Path 649782" d="M380.46,145.938a3.137,3.137,0,0,1-.628,4.638,3.063,3.063,0,0,1-4.489-.755,3.127,3.127,0,0,1,.658-4.643,3.038,3.038,0,0,1,4.459.76m-3.809,2.875c.724.985,1.751,1.375,2.538.8.733-.538.717-1.638-.037-2.666-.585-.8-1.61-1.447-2.49-.8-.912.669-.634,1.819-.011,2.668" transform="translate(334 74)" fill="#022a3a"/>
    <path id="Path_649783" data-name="Path 649783" d="M381.291,143.791c-.572-.64-.989-1.086-1.4-1.486l1.037-.928.844.867.039-.035a1.888,1.888,0,0,1,.387-2.161,1.709,1.709,0,0,1,.307-.222l1.006,1.124a2.178,2.178,0,0,0-.384.274,1.41,1.41,0,0,0-.26,1.854,2.717,2.717,0,0,0,.291.4l2.184,2.441-1.192,1.067Z" transform="translate(334 74)" fill="#022a3a"/>
    <path id="Path_649784" data-name="Path 649784" d="M262.023,70.62l-.6,2.423-1.3-.324,1.6-6.423,1.3.324-.61,2.448,7.206,1.795-.387,1.552Z" transform="translate(334 74)" fill="#022a3a"/>
    <path id="Path_649785" data-name="Path 649785" d="M269.016,58.652c2.752,1.027,3.7,3.282,2.854,5.547-.864,2.313-3.175,3.115-5.586,2.215-2.521-.941-3.707-3.188-2.843-5.5.895-2.4,3.237-3.133,5.575-2.26m-2.166,6.17c1.669.623,3.31.278,3.846-1.158s-.493-2.765-2.21-3.406c-1.547-.578-3.294-.356-3.854,1.141s.526,2.791,2.218,3.423" transform="translate(334 74)" fill="#022a3a"/>
    <path id="Path_649786" data-name="Path 649786" d="M272.47,56.219l1.846,1.824-.769,1.461L267.1,52.936l.95-1.806,9.082,1.563-.8,1.519-2.568-.455Zm.1-2.784-2.23-.4c-.551-.1-1.148-.25-1.657-.372l-.011.023c.387.351.868.751,1.255,1.132l1.6,1.6Z" transform="translate(334 74)" fill="#022a3a"/>
    <path id="Path_649787" data-name="Path 649787" d="M276.492,50.52a4.424,4.424,0,0,0,1.651-1.44c.577-.85.5-1.593-.092-1.994-.549-.372-1.12-.225-2.08.474-1.241.9-2.393,1.236-3.436.528-1.184-.8-1.416-2.4-.352-3.975a4.629,4.629,0,0,1,1.548-1.494l.846,1.044a3.719,3.719,0,0,0-1.321,1.209c-.57.838-.366,1.51.054,1.795.559.379,1.1.135,2.135-.578,1.326-.938,2.377-1.121,3.421-.413,1.161.787,1.574,2.355.306,4.227a5.224,5.224,0,0,1-1.78,1.652Z" transform="translate(334 74)" fill="#022a3a"/>
    <path id="Path_649788" data-name="Path 649788" d="M277.366,39.673,275.778,41.6l-1.032-.852,4.209-5.1,1.033.852-1.6,1.945,5.723,4.722L283.091,44.4Z" transform="translate(334 74)" fill="#022a3a"/>
    <path id="Path_649789" data-name="Path 649789" d="M289.52,32.64c-.807-.794-1.782-1.751-2.576-2.628l-.029.026c.514.977,1.051,2.092,1.516,3.167l1.646,3.651-.907.839-3.4-1.951c-1.008-.59-2.05-1.256-2.964-1.9l-.018.018c.749.865,1.656,1.921,2.421,2.843l2.25,2.717-1.1,1.016-5.526-6.825,1.545-1.432,3.234,1.807c.927.542,1.834,1.119,2.659,1.684l.028-.027c-.473-.855-.987-1.849-1.437-2.833l-1.5-3.4L286.891,28l6.327,6.084-1.144,1.06Z" transform="translate(334 74)" fill="#022a3a"/>
    <path id="Path_649790" data-name="Path 649790" d="M294.68,30.019l.8,2.469-1.355.943-2.7-8.794L293.1,23.47l7.345,5.562-1.409.981-2.069-1.584Zm1.367-2.426-1.8-1.376c-.443-.341-.9-.75-1.3-1.092l-.021.015c.182.49.426,1.066.6,1.582l.678,2.157Z" transform="translate(334 74)" fill="#022a3a"/>
    <path id="Path_649791" data-name="Path 649791" d="M300.907,26.8a4.416,4.416,0,0,0,2.129-.516c.9-.488,1.177-1.183.837-1.812-.316-.582-.89-.715-2.064-.538-1.515.229-2.692-.007-3.292-1.115-.679-1.257-.147-2.786,1.522-3.688a4.622,4.622,0,0,1,2.061-.613l.27,1.317a3.7,3.7,0,0,0-1.73.463c-.891.481-1.02,1.171-.779,1.617.321.594.915.628,2.16.472,1.61-.22,2.625.1,3.225,1.21.667,1.235.31,2.816-1.678,3.891a5.219,5.219,0,0,1-2.34.645Z" transform="translate(334 74)" fill="#022a3a"/>
    <path id="Path_649792" data-name="Path 649792" d="M306.715,17.552l-2.306.958-.513-1.237,6.112-2.539.514,1.236-2.33.968,2.849,6.857-1.477.614Z" transform="translate(334 74)" fill="#022a3a"/>
    <path id="Path_649793" data-name="Path 649793" d="M318.208,17.288l-3.163.954.743,2.465,3.536-1.066.38,1.257-5.068,1.528-2.53-8.392,4.881-1.471.379,1.257-3.349,1.01L314.67,17l3.162-.953Z" transform="translate(334 74)" fill="#022a3a"/>
    <path id="Path_649794" data-name="Path 649794" d="M319.719,12.014a15.122,15.122,0,0,1,2.342-.63,4.064,4.064,0,0,1,2.788.185,2.22,2.22,0,0,1,1.068,1.583,2.338,2.338,0,0,1-1.148,2.455l.006.038a2.228,2.228,0,0,1,1.517,1.432,17.483,17.483,0,0,0,1.133,2.273l-1.622.308a12.333,12.333,0,0,1-.961-1.922c-.456-1.077-.933-1.358-1.831-1.213l-.792.15.672,3.538-1.558.3ZM322,15.524l.933-.177c1.06-.2,1.617-.89,1.455-1.745-.18-.946-.927-1.254-1.949-1.059a4.628,4.628,0,0,0-.956.26Z" transform="translate(334 74)" fill="#022a3a"/>
    <path id="Path_649795" data-name="Path 649795" d="M328.741,17.464a4.436,4.436,0,0,0,2.158.383c1.024-.084,1.554-.611,1.5-1.323-.054-.661-.527-1.013-1.674-1.323-1.481-.4-2.463-1.088-2.567-2.345-.118-1.425.984-2.611,2.876-2.767a4.628,4.628,0,0,1,2.135.267l-.283,1.315a3.7,3.7,0,0,0-1.77-.271c-1.011.083-1.406.663-1.364,1.168.055.674.586.943,1.789,1.3,1.562.445,2.364,1.148,2.468,2.4.115,1.4-.847,2.7-3.1,2.89a5.192,5.192,0,0,1-2.4-.35Z" transform="translate(334 74)" fill="#022a3a"/>
    <rect id="Rectangle_18857" data-name="Rectangle 18857" width="8.759" height="1.599" transform="translate(673.121 92.777) rotate(-87.782)" fill="#022a3a"/>
    <path id="Path_649796" data-name="Path 649796" d="M342.872,18.9l1.142-8.69,1.8.237,1.754,4.021a24.1,24.1,0,0,1,1.1,3.109l.026,0c.049-1.174.157-2.3.332-3.629l.4-3.03,1.469.193-1.141,8.691-1.638-.216-1.768-4.114a30.67,30.67,0,0,1-1.166-3.209l-.04.008c-.083,1.13-.22,2.279-.409,3.71l-.408,3.107Z" transform="translate(334 74)" fill="#022a3a"/>
    <path id="Path_649797" data-name="Path 649797" d="M355.249,13.472l-2.42-.609.327-1.3,6.415,1.616-.327,1.3-2.445-.615-1.812,7.2-1.55-.39Z" transform="translate(334 74)" fill="#022a3a"/>
    <path id="Path_649798" data-name="Path 649798" d="M364.628,20.128,361.524,19l-.88,2.42,3.471,1.261-.449,1.235-4.974-1.808,2.993-8.237,4.791,1.74-.449,1.235-3.288-1.2-.772,2.127,3.1,1.128Z" transform="translate(334 74)" fill="#022a3a"/>
    <path id="Path_649799" data-name="Path 649799" d="M369.029,16.825a15.323,15.323,0,0,1,2.251.9,4.057,4.057,0,0,1,2.12,1.818,2.218,2.218,0,0,1-.093,1.907,2.337,2.337,0,0,1-2.389,1.276l-.017.035a2.229,2.229,0,0,1,.355,2.054,17.687,17.687,0,0,0-.454,2.5l-1.483-.725a12.441,12.441,0,0,1,.383-2.113c.28-1.135.067-1.645-.739-2.068l-.724-.353-1.581,3.233-1.424-.7ZM368.753,21l.852.417a1.515,1.515,0,0,0,2.21-.526c.421-.864.008-1.557-.925-2.014a4.584,4.584,0,0,0-.922-.363Z" transform="translate(334 74)" fill="#022a3a"/>
    <path id="Path_649800" data-name="Path 649800" d="M372.058,28.017l4.762-7.353,1.527.989-.143,4.382a24.183,24.183,0,0,1-.342,3.278l.022.015c.548-1.039,1.13-2.009,1.858-3.133l1.66-2.564,1.244.805-4.762,7.354-1.386-.9.171-4.472a30.8,30.8,0,0,1,.326-3.4l-.04-.01c-.559.984-1.177,1.962-1.961,3.173l-1.7,2.629Z" transform="translate(334 74)" fill="#022a3a"/>
    <path id="Path_649801" data-name="Path 649801" d="M382.485,32.287l-2.161,1.435-1.273-1.05,7.74-4.971,1.574,1.3-3.379,8.568-1.323-1.092.967-2.419Zm2.7.664.842-2.1c.209-.518.478-1.07.7-1.544l-.021-.016c-.422.308-.911.7-1.362,1l-1.894,1.234Z" transform="translate(334 74)" fill="#022a3a"/>
    <path id="Path_649802" data-name="Path 649802" d="M391.771,33.992l-1.746-1.784.957-.937L395.611,36l-.957.937-1.765-1.8-5.305,5.193-1.12-1.143Z" transform="translate(334 74)" fill="#022a3a"/>
    <rect id="Rectangle_18858" data-name="Rectangle 18858" width="8.761" height="1.598" transform="matrix(0.767, -0.642, 0.642, 0.767, 724.176, 117.188)" fill="#022a3a"/>
    <path id="Path_649803" data-name="Path 649803" d="M400.7,49.927c-2.421,1.663-4.811,1.144-6.179-.849-1.4-2.035-.727-4.387,1.394-5.843,2.217-1.522,4.738-1.2,6.135.832,1.448,2.11.706,4.448-1.35,5.86m-3.807-5.314c-1.468,1.007-2.128,2.548-1.26,3.812s2.546,1.184,4.057.146c1.36-.934,2.182-2.491,1.277-3.809s-2.586-1.171-4.074-.149" transform="translate(334 74)" fill="#022a3a"/>
    <path id="Path_649804" data-name="Path 649804" d="M397.8,53.871l7.816-3.959.823,1.623-2.329,3.716a24.335,24.335,0,0,1-1.946,2.661l.012.023c1-.621,1.988-1.167,3.183-1.772l2.724-1.381.67,1.322-7.816,3.96-.746-1.473,2.4-3.78a30.731,30.731,0,0,1,1.991-2.772l-.029-.029c-.98.569-2.006,1.1-3.293,1.756l-2.8,1.416Z" transform="translate(334 74)" fill="#022a3a"/>
    <path id="Path_649805" data-name="Path 649805" d="M404.677,62.821l-2.591.123-.554-1.554,9.19-.3.686,1.922-7.293,5.621-.576-1.615,2.071-1.58Zm1.98,1.956,1.8-1.373c.445-.338.96-.673,1.393-.966l-.008-.025c-.521.048-1.14.131-1.682.159l-2.258.088Z" transform="translate(334 74)" fill="#022a3a"/>
    <path id="Path_649806" data-name="Path 649806" d="M412.988,68.081l.37,1.556-7.224,1.716.833,3.5-1.3.31-1.2-5.06Z" transform="translate(334 74)" fill="#022a3a"/>
    <path id="Path_649807" data-name="Path 649807" d="M391.846,87.989a53.382,53.382,0,1,1-53.382-53.382,53.382,53.382,0,0,1,53.382,53.382" transform="translate(334 74)" fill="#fff"/>
    <path id="Path_649808" data-name="Path 649808" d="M318.015,113.085c6.2,0,10.608-6.336,11.435-8.677" transform="translate(334 74)" fill="none" stroke="#dd8676" stroke-linecap="round" stroke-miterlimit="10" stroke-width="2"/>
    <path id="Path_649809" data-name="Path 649809" d="M318.585,121.364q.669-.041,1.361-.132c21.617-2.855,18.562-39.828,17.809-46.665a1.237,1.237,0,0,0-1.236-1.087,142.915,142.915,0,0,0-22.1,1.6" transform="translate(334 74)" fill="none" stroke="#dd8676" stroke-miterlimit="10" stroke-width="2"/>
    <path id="Path_649810" data-name="Path 649810" d="M318.585,121.364c-20.715,1.262-25.73-33.076-26.428-38.875a1.189,1.189,0,0,1,.651-1.221c2.179-1.1,9.195-4.243,21.609-6.183,0,0,.76,14.06-2.79,25.161a.707.707,0,0,0,.309.833,16.173,16.173,0,0,0,5.393,2.089Z" transform="translate(334 74)" fill="#dd8676"/>
    <path id="Path_649811" data-name="Path 649811" d="M318.585,121.364c-20.715,1.262-25.73-33.076-26.428-38.875a1.189,1.189,0,0,1,.651-1.221c2.179-1.1,9.195-4.243,21.609-6.183,0,0,.76,14.06-2.79,25.161a.707.707,0,0,0,.309.833,16.173,16.173,0,0,0,5.393,2.089Z" transform="translate(334 74)" fill="none" stroke="#dd8676" stroke-miterlimit="10" stroke-width="2"/>
    <path id="Path_649812" data-name="Path 649812" d="M307.391,107.751s4.423,5.334,10.624,5.334" transform="translate(334 74)" fill="none" stroke="#fff" stroke-linecap="round" stroke-miterlimit="10" stroke-width="2"/>
    <path id="Path_649813" data-name="Path 649813" d="M321.579,88.913s.414-4.429,4.762-4.429,4.5,3.726,4.5,3.726" transform="translate(334 74)" fill="none" stroke="#dd8676" stroke-linecap="round" stroke-miterlimit="10" stroke-width="2"/>
    <path id="Path_649814" data-name="Path 649814" d="M299.065,93.109s-.121-4.447,4.2-4.969,4.916,3.16,4.916,3.16" transform="translate(334 74)" fill="none" stroke="#fff" stroke-linecap="round" stroke-miterlimit="10" stroke-width="2"/>
    <path id="Path_649815" data-name="Path 649815" d="M357.461,91.621a.907.907,0,0,1,.605-.729,14.326,14.326,0,0,0,5.511-3.432,1.275,1.275,0,0,0,.2-1.579c-3.062-4.861-3.345-22.48-3.345-22.48,6.98.743,14.562,2.444,21.191,5.953a.909.909,0,0,1,.486.86c-.31,5.014-3.345,40.749-26.778,38.222Z" transform="translate(334 74)" fill="#a93439"/>
    <path id="Path_649816" data-name="Path 649816" d="M357.461,91.621a.907.907,0,0,1,.605-.729,14.326,14.326,0,0,0,5.511-3.432,1.275,1.275,0,0,0,.2-1.579c-3.062-4.861-3.345-22.48-3.345-22.48,6.98.743,14.562,2.444,21.191,5.953a.909.909,0,0,1,.486.86c-.31,5.014-3.345,40.749-26.778,38.222Z" transform="translate(334 74)" fill="none" stroke="#a93439" stroke-linecap="round" stroke-miterlimit="10" stroke-width="2"/>
    <path id="Path_649817" data-name="Path 649817" d="M356.946,95.692a10.319,10.319,0,0,0-8.247,3.73" transform="translate(334 74)" fill="none" stroke="#a93439" stroke-linecap="round" stroke-miterlimit="10" stroke-width="2"/>
    <path id="Path_649818" data-name="Path 649818" d="M364.818,100.584a11.891,11.891,0,0,0-6.913-4.758,7.7,7.7,0,0,0-.959-.133" transform="translate(334 74)" fill="none" stroke="#fff" stroke-linecap="round" stroke-miterlimit="10" stroke-width="2"/>
    <path id="Path_649819" data-name="Path 649819" d="M376.352,78.937s-1.292,4.257-5.552,3.386-3.664-4.552-3.664-4.552" transform="translate(334 74)" fill="none" stroke="#fff" stroke-linecap="round" stroke-miterlimit="10" stroke-width="2"/>
    <path id="Path_649820" data-name="Path 649820" d="M354.52,76.8s-1.292,4.257-5.552,3.386S345.3,75.63,345.3,75.63" transform="translate(334 74)" fill="none" stroke="#a93439" stroke-linecap="round" stroke-miterlimit="10" stroke-width="2"/>
    <path id="Path_649821" data-name="Path 649821" d="M355.327,108.436c-6.413-.424-10.543-4.153-13.32-8.883" transform="translate(334 74)" fill="none" stroke="#a93439" stroke-linecap="round" stroke-miterlimit="10" stroke-width="2"/>
    <path id="Path_649822" data-name="Path 649822" d="M337.164,68.625c.091-1.3.194-2.395.283-3.211a2.081,2.081,0,0,1,1.819-1.861,98.318,98.318,0,0,1,21.161-.152" transform="translate(334 74)" fill="none" stroke="#a93439" stroke-linecap="round" stroke-miterlimit="10" stroke-width="2"/>
    <path id="Path_649823" data-name="Path 649823" d="M337.128,30.165a57.823,57.823,0,1,0,57.823,57.824,57.824,57.824,0,0,0-57.823-57.824M371.82,107.4a21.357,21.357,0,0,1-14.144,5.173,25.816,25.816,0,0,1-2.6-.137h-.018l-.021,0c-.049,0-.1-.006-.145-.011l-4.029-.729A19.69,19.69,0,0,1,340.3,104.2c-2.677,10.3-8.121,18.27-17.459,20.549l-4.008.616h0c-.474.029-.944.043-1.4.043-22.954,0-28.384-35.247-29.251-42.441A5.235,5.235,0,0,1,291,77.688c2.6-1.31,10-4.568,22.8-6.566l4.387-.686.005.1a150.3,150.3,0,0,1,15.083-1.01,3.972,3.972,0,0,1-.111-1.174c.1-1.366.2-2.508.295-3.362a6.077,6.077,0,0,1,5.328-5.417,104.5,104.5,0,0,1,17.561-.518v-.12l4.508.479c8.772.934,16.391,3.087,22.643,6.4a4.935,4.935,0,0,1,2.614,4.653c-.27,4.384-2.23,26.769-14.289,36.943" transform="translate(334 74)" fill="#022a3a"/>
    <path id="Path_649824" data-name="Path 649824" d="M265.766,87.384A2.387,2.387,0,1,1,263.379,85a2.387,2.387,0,0,1,2.387,2.387" transform="translate(334 74)" fill="#a93439"/>
    <path id="Path_649825" data-name="Path 649825" d="M413.263,87.384A2.387,2.387,0,1,1,410.876,85a2.387,2.387,0,0,1,2.387,2.387" transform="translate(334 74)" fill="#a93439"/>
  </g>
</svg>
