<svg xmlns="http://www.w3.org/2000/svg" width="174.308" height="174.308" viewBox="0 0 174.308 174.308">
  <g id="pathways-badge-motivational-strategies" transform="translate(-834.862 -74.23)">
    <path id="Path_649826" data-name="Path 649826" d="M674.17,87.384A86.154,86.154,0,1,1,588.016,1.23,86.154,86.154,0,0,1,674.17,87.384" transform="translate(334 74)" fill="#fff"/>
    <circle id="Ellipse_91" data-name="Ellipse 91" cx="86.154" cy="86.154" r="86.154" transform="translate(835.862 75.23)" fill="none" stroke="#006094" stroke-miterlimit="10" stroke-width="2"/>
    <path id="Path_649827" data-name="Path 649827" d="M532.317,132.952c.907-.679,2-1.5,2.986-2.155l-.022-.032c-1.043.363-2.227.727-3.36,1.025l-3.857,1.08-.694-1.022,2.439-3.073c.736-.908,1.55-1.839,2.322-2.646l-.014-.022c-.969.611-2.15,1.35-3.176,1.969l-3.024,1.819-.841-1.237,7.579-4.442,1.184,1.742-2.272,2.928c-.674.836-1.381,1.646-2.063,2.377l.021.032c.917-.34,1.978-.7,3.018-1l3.585-.973,1.168,1.721-6.965,5.345-.877-1.291Z" transform="translate(334 74)" fill="#022a3a"/>
    <path id="Path_649828" data-name="Path 649828" d="M538.7,140.89a3.137,3.137,0,0,1-4.679-.127,3.063,3.063,0,0,1,.267-4.545,3.127,3.127,0,0,1,4.688.155,3.04,3.04,0,0,1-.276,4.517m-3.268-3.479c-.9.825-1.181,1.889-.522,2.609.614.672,1.706.537,2.647-.323.729-.667,1.266-1.757.528-2.563-.762-.835-1.876-.434-2.653.277" transform="translate(334 74)" fill="#022a3a"/>
    <path id="Path_649829" data-name="Path 649829" d="M544.883,139.877l-1.211,1.34,1.128,1.02-.8.887L542.87,142.1,541,144.178c-.513.569-.63,1.008-.176,1.417a2.353,2.353,0,0,0,.515.36l-.8.924a3.509,3.509,0,0,1-.963-.66,1.852,1.852,0,0,1-.673-1.309,2.517,2.517,0,0,1,.818-1.642l1.995-2.209-.675-.61.8-.887.675.61.958-1.061Z" transform="translate(334 74)" fill="#022a3a"/>
    <path id="Path_649830" data-name="Path 649830" d="M542.17,148.25l3.93-4.963,1.264,1-3.931,4.963Zm6.364-5.292a.9.9,0,1,1-.163-1.24.847.847,0,0,1,.163,1.24" transform="translate(334 74)" fill="#022a3a"/>
    <path id="Path_649831" data-name="Path 649831" d="M549.954,146.205l-.928,3.243c-.159.566-.332,1.06-.523,1.558l.032.021c.387-.367.779-.7,1.238-1.081l2.616-2.117,1.406.939-5.528,3.926-1.308-.874,1.557-6.575Z" transform="translate(334 74)" fill="#022a3a"/>
    <path id="Path_649832" data-name="Path 649832" d="M555.159,156.675l.233-.67-.034-.018a2.352,2.352,0,0,1-2.049-.122,1.879,1.879,0,0,1-.884-2.593c.743-1.415,2.372-1.47,4.436-.37l.049-.093c.193-.368.364-1.056-.625-1.576a3.359,3.359,0,0,0-1.726-.377l.208-1.066a4.568,4.568,0,0,1,2.285.569,2.367,2.367,0,0,1,1.074,3.573l-1.064,2.025a10.306,10.306,0,0,0-.627,1.388Zm1.254-2.835c-.989-.549-2.059-.832-2.506.02a.839.839,0,0,0,.382,1.228,1.3,1.3,0,0,0,1.51-.191,1.128,1.128,0,0,0,.209-.286Z" transform="translate(334 74)" fill="#022a3a"/>
    <path id="Path_649833" data-name="Path 649833" d="M563.575,151.569l-.693,1.669,1.4.584-.459,1.1-1.4-.583-1.074,2.581c-.294.709-.256,1.161.308,1.4a2.4,2.4,0,0,0,.606.167l-.445,1.139a3.517,3.517,0,0,1-1.129-.3,1.849,1.849,0,0,1-1.073-1.009,2.523,2.523,0,0,1,.223-1.823l1.142-2.75-.841-.349.459-1.105.841.349.549-1.32Z" transform="translate(334 74)" fill="#022a3a"/>
    <path id="Path_649834" data-name="Path 649834" d="M563.846,160.378l2.029-6,1.527.517-2.029,6Zm4.209-7.126a.9.9,0,1,1-.571-1.112.848.848,0,0,1,.571,1.112" transform="translate(334 74)" fill="#022a3a"/>
    <path id="Path_649835" data-name="Path 649835" d="M574.58,160.034a3.137,3.137,0,0,1-3.957,2.5,3.062,3.062,0,0,1-2.309-3.924,3.126,3.126,0,0,1,3.979-2.482,3.038,3.038,0,0,1,2.287,3.9m-4.652-1.068c-.29,1.187.072,2.227,1.02,2.458.884.215,1.716-.5,2.018-1.744.234-.96.073-2.164-.988-2.422-1.1-.269-1.8.685-2.05,1.708" transform="translate(334 74)" fill="#022a3a"/>
    <path id="Path_649836" data-name="Path 649836" d="M576.8,159.177c.088-.723.148-1.331.176-1.878l1.394.17-.037.951.038.005a2.287,2.287,0,0,1,2.134-.841c1.1.134,2.147.982,1.9,2.97l-.454,3.731-1.588-.193.433-3.55c.109-.9-.143-1.629-1.008-1.734a1.341,1.341,0,0,0-1.352.778,1.6,1.6,0,0,0-.127.508l-.45,3.693-1.6-.2Z" transform="translate(334 74)" fill="#022a3a"/>
    <path id="Path_649837" data-name="Path 649837" d="M588.356,164.49l-.1-.7h-.039a2.347,2.347,0,0,1-1.881.825,1.88,1.88,0,0,1-1.969-1.906c.017-1.6,1.443-2.39,3.783-2.352v-.1c.005-.416-.158-1.107-1.276-1.119a3.345,3.345,0,0,0-1.708.45l-.3-1.043a4.555,4.555,0,0,1,2.294-.535,2.367,2.367,0,0,1,2.585,2.693l-.024,2.288a10.282,10.282,0,0,0,.075,1.522Zm-.175-3.1c-1.131-.038-2.213.2-2.223,1.16a.841.841,0,0,0,.9.92,1.3,1.3,0,0,0,1.257-.858,1.159,1.159,0,0,0,.055-.351Z" transform="translate(334 74)" fill="#022a3a"/>
    <rect id="Rectangle_18859" data-name="Rectangle 18859" width="1.612" height="9.232" transform="translate(925.717 229.143) rotate(-4.126)" fill="#022a3a"/>
    <path id="Path_649838" data-name="Path 649838" d="M599.789,161.8a4.424,4.424,0,0,0,2.188.125c1.007-.205,1.472-.791,1.33-1.491-.133-.65-.644-.944-1.821-1.116-1.517-.222-2.575-.789-2.827-2.025-.285-1.4.669-2.71,2.529-3.089a4.617,4.617,0,0,1,2.153.013l-.125,1.339a3.725,3.725,0,0,0-1.791-.06c-.993.2-1.318.825-1.217,1.323.135.662.694.867,1.932,1.079,1.6.257,2.484.861,2.735,2.1.28,1.376-.521,2.786-2.737,3.238a5.212,5.212,0,0,1-2.428-.063Z" transform="translate(334 74)" fill="#022a3a"/>
    <path id="Path_649839" data-name="Path 649839" d="M607.056,153.486l.52,1.731,1.457-.438.343,1.146-1.457.437.8,2.677c.221.735.536,1.061,1.121.885a2.317,2.317,0,0,0,.575-.254l.376,1.163a3.489,3.489,0,0,1-1.062.482,1.851,1.851,0,0,1-1.47-.1,2.522,2.522,0,0,1-.981-1.552l-.857-2.851-.871.261-.345-1.145.872-.262-.411-1.369Z" transform="translate(334 74)" fill="#022a3a"/>
    <path id="Path_649840" data-name="Path 649840" d="M611.356,156.124c-.309-.8-.54-1.366-.781-1.886l1.3-.5.482,1.109.049-.018a1.888,1.888,0,0,1,1.128-1.883,1.71,1.71,0,0,1,.365-.1l.542,1.407a2.247,2.247,0,0,0-.455.119,1.41,1.41,0,0,0-.9,1.643,2.779,2.779,0,0,0,.128.479l1.177,3.057-1.492.574Z" transform="translate(334 74)" fill="#022a3a"/>
    <path id="Path_649841" data-name="Path 649841" d="M621.227,156.5l-.4-.584-.035.017a2.351,2.351,0,0,1-1.305,1.584,1.879,1.879,0,0,1-2.616-.812c-.706-1.434.209-2.783,2.314-3.8l-.046-.093c-.184-.373-.64-.916-1.643-.423a3.365,3.365,0,0,0-1.32,1.172l-.738-.795a4.538,4.538,0,0,1,1.8-1.511,2.367,2.367,0,0,1,3.52,1.236l1.01,2.052a10.024,10.024,0,0,0,.753,1.324Zm-1.553-2.683c-1.025.476-1.884,1.173-1.459,2.036a.839.839,0,0,0,1.218.415,1.3,1.3,0,0,0,.734-1.332,1.128,1.128,0,0,0-.108-.338Z" transform="translate(334 74)" fill="#022a3a"/>
    <path id="Path_649842" data-name="Path 649842" d="M622.062,146.687l.941,1.542,1.3-.793.623,1.021-1.3.793,1.457,2.384c.4.655.788.89,1.309.572a2.344,2.344,0,0,0,.491-.392l.659,1.03a3.53,3.53,0,0,1-.906.736,1.85,1.85,0,0,1-1.446.274,2.518,2.518,0,0,1-1.343-1.251l-1.552-2.541-.776.475-.623-1.021.776-.474-.745-1.22Z" transform="translate(334 74)" fill="#022a3a"/>
    <path id="Path_649843" data-name="Path 649843" d="M628.687,148.8a1.72,1.72,0,0,0,2.542.152,4.767,4.767,0,0,0,1.239-1.276l.847.748a5.985,5.985,0,0,1-1.542,1.631,3,3,0,0,1-4.527-.623,3.134,3.134,0,0,1,.453-4.579c1.649-1.225,3.2-.271,4.029.846a3.93,3.93,0,0,1,.361.573Zm1.567-2.557a1.361,1.361,0,0,0-1.977-.459,1.564,1.564,0,0,0-.256,2.118Z" transform="translate(334 74)" fill="#022a3a"/>
    <path id="Path_649844" data-name="Path 649844" d="M635.535,138.278c.273.332.61.729,1.205,1.365l2.451,2.619a3.049,3.049,0,0,1,.018,4.967,4.471,4.471,0,0,1-1.96,1.139l-.569-1.122a3.827,3.827,0,0,0,1.676-.91,1.682,1.682,0,0,0,.023-2.639l-.373-.4-.018.018a2.138,2.138,0,0,1-.708,1.944,2.807,2.807,0,0,1-4.078-.421,3.031,3.031,0,0,1-.186-4.4,1.993,1.993,0,0,1,2.014-.531l.018-.018-.529-.661Zm.526,2.979a1.566,1.566,0,0,0-.331-.277,1.327,1.327,0,0,0-1.651.138c-.655.613-.606,1.635.273,2.575a1.688,1.688,0,0,0,2.462.366,1.365,1.365,0,0,0,.292-1.59,2.844,2.844,0,0,0-.344-.462Z" transform="translate(334 74)" fill="#022a3a"/>
    <path id="Path_649845" data-name="Path 649845" d="M636.74,134.292a.847.847,0,0,1,.028,1.25.839.839,0,0,1-1.228.083.9.9,0,0,1,1.2-1.333m4.878,6.684-4.7-4.235,1.078-1.2,4.7,4.236Z" transform="translate(334 74)" fill="#022a3a"/>
    <path id="Path_649846" data-name="Path 649846" d="M643.008,135.188a1.721,1.721,0,0,0,2.486-.556,4.749,4.749,0,0,0,.837-1.568l1.02.485a5.951,5.951,0,0,1-1.031,1.993,3,3,0,0,1-4.522.652,3.135,3.135,0,0,1-.829-4.525c1.247-1.633,3-1.144,4.106-.3a3.977,3.977,0,0,1,.505.451Zm.8-2.889a1.36,1.36,0,0,0-2.026.1,1.564,1.564,0,0,0,.338,2.106Z" transform="translate(334 74)" fill="#022a3a"/>
    <path id="Path_649847" data-name="Path 649847" d="M647.769,130.752a3.559,3.559,0,0,0,1.241-1.142c.369-.6.29-1.011-.063-1.23s-.69-.121-1.331.4c-1.015.824-1.863.911-2.486.51a2.117,2.117,0,0,1-.432-3.079,3.723,3.723,0,0,1,1.2-1.227l.8.86a2.839,2.839,0,0,0-1.014.947c-.3.486-.233.895.1,1.1s.665.06,1.332-.475A2.053,2.053,0,0,1,649.65,127c.972.6,1.207,1.8.325,3.226a4.078,4.078,0,0,1-1.387,1.4Z" transform="translate(334 74)" fill="#022a3a"/>
    <path id="Path_649848" data-name="Path 649848" d="M512.911,70.62l-.6,2.423-1.3-.324,1.6-6.423,1.3.324-.61,2.448,7.206,1.795-.387,1.552Z" transform="translate(334 74)" fill="#022a3a"/>
    <path id="Path_649849" data-name="Path 649849" d="M519.905,58.652c2.752,1.027,3.7,3.282,2.854,5.547-.864,2.313-3.176,3.115-5.586,2.215-2.521-.941-3.707-3.188-2.843-5.5.895-2.4,3.237-3.133,5.575-2.26m-2.166,6.17c1.669.623,3.31.278,3.846-1.158s-.493-2.765-2.21-3.406c-1.547-.578-3.294-.356-3.854,1.141s.526,2.791,2.218,3.423" transform="translate(334 74)" fill="#022a3a"/>
    <path id="Path_649850" data-name="Path 649850" d="M523.358,56.219l1.846,1.824-.769,1.461-6.446-6.568.95-1.806,9.082,1.563-.8,1.519-2.568-.455Zm.1-2.784-2.23-.4c-.551-.1-1.147-.25-1.657-.372l-.011.023c.387.351.868.751,1.255,1.132l1.595,1.6Z" transform="translate(334 74)" fill="#022a3a"/>
    <path id="Path_649851" data-name="Path 649851" d="M527.381,50.52a4.423,4.423,0,0,0,1.651-1.44c.577-.85.5-1.593-.092-1.994-.549-.372-1.12-.225-2.08.474-1.241.9-2.393,1.236-3.436.528-1.184-.8-1.416-2.4-.352-3.975a4.629,4.629,0,0,1,1.548-1.494l.846,1.044a3.719,3.719,0,0,0-1.321,1.209c-.57.838-.366,1.51.054,1.795.559.379,1.1.135,2.135-.578,1.326-.938,2.377-1.121,3.421-.413,1.161.787,1.574,2.355.306,4.227a5.224,5.224,0,0,1-1.78,1.652Z" transform="translate(334 74)" fill="#022a3a"/>
    <path id="Path_649852" data-name="Path 649852" d="M528.255,39.673,526.667,41.6l-1.032-.852,4.209-5.1,1.033.852-1.6,1.945L535,43.162,533.98,44.4Z" transform="translate(334 74)" fill="#022a3a"/>
    <path id="Path_649853" data-name="Path 649853" d="M540.408,32.64c-.807-.794-1.782-1.751-2.576-2.628l-.029.026c.514.977,1.051,2.092,1.516,3.167l1.646,3.651-.907.839-3.4-1.951c-1.008-.59-2.05-1.256-2.964-1.9l-.018.018c.749.865,1.656,1.921,2.421,2.843l2.25,2.717-1.1,1.016-5.526-6.825,1.545-1.432L536.5,33.99c.927.542,1.834,1.119,2.659,1.684l.028-.027c-.473-.855-.987-1.849-1.437-2.833l-1.5-3.4L537.779,28l6.327,6.084-1.144,1.06Z" transform="translate(334 74)" fill="#022a3a"/>
    <path id="Path_649854" data-name="Path 649854" d="M545.589,30l.8,2.469-1.355.943-2.7-8.794L544,23.454l7.345,5.562L549.94,30l-2.069-1.584Zm1.367-2.426-1.8-1.376c-.443-.341-.9-.75-1.3-1.092l-.021.015c.182.49.426,1.066.6,1.581l.678,2.158Z" transform="translate(334 74)" fill="#022a3a"/>
    <path id="Path_649855" data-name="Path 649855" d="M551.8,26.8a4.416,4.416,0,0,0,2.129-.516c.9-.488,1.177-1.183.837-1.812-.316-.582-.89-.715-2.064-.538-1.515.229-2.692-.007-3.292-1.115-.679-1.257-.147-2.786,1.522-3.688a4.623,4.623,0,0,1,2.061-.613l.27,1.317a3.7,3.7,0,0,0-1.73.463c-.891.481-1.02,1.171-.779,1.617.321.594.915.628,2.16.472,1.61-.22,2.625.1,3.225,1.21.667,1.235.31,2.816-1.678,3.891a5.219,5.219,0,0,1-2.34.645Z" transform="translate(334 74)" fill="#022a3a"/>
    <path id="Path_649856" data-name="Path 649856" d="M557.6,17.552l-2.306.958-.513-1.237,6.112-2.539.514,1.236-2.33.968L561.93,23.8l-1.477.614Z" transform="translate(334 74)" fill="#022a3a"/>
    <path id="Path_649857" data-name="Path 649857" d="M569.1,17.288l-3.163.954.743,2.465,3.536-1.066.379,1.257-5.067,1.528-2.53-8.392,4.881-1.471.379,1.257-3.349,1.01L565.559,17l3.162-.953Z" transform="translate(334 74)" fill="#022a3a"/>
    <path id="Path_649858" data-name="Path 649858" d="M570.634,12.008a15.123,15.123,0,0,1,2.342-.63,4.064,4.064,0,0,1,2.788.185,2.22,2.22,0,0,1,1.068,1.583,2.338,2.338,0,0,1-1.148,2.455l.006.038a2.228,2.228,0,0,1,1.517,1.432,17.481,17.481,0,0,0,1.133,2.273l-1.622.308a12.33,12.33,0,0,1-.961-1.922c-.456-1.077-.933-1.358-1.831-1.213l-.792.15.672,3.538-1.558.3Zm2.281,3.51.933-.177c1.06-.2,1.617-.89,1.455-1.745-.18-.946-.927-1.254-1.949-1.059a4.627,4.627,0,0,0-.956.26Z" transform="translate(334 74)" fill="#022a3a"/>
    <path id="Path_649859" data-name="Path 649859" d="M579.631,17.464a4.429,4.429,0,0,0,2.157.383c1.024-.084,1.554-.611,1.495-1.323-.054-.661-.527-1.013-1.673-1.323-1.482-.4-2.464-1.088-2.568-2.345-.118-1.425.985-2.611,2.876-2.767a4.627,4.627,0,0,1,2.135.267l-.283,1.315A3.7,3.7,0,0,0,582,11.4c-1.011.083-1.406.663-1.364,1.168.055.674.586.943,1.789,1.3,1.562.445,2.364,1.148,2.468,2.4.115,1.4-.847,2.7-3.1,2.89a5.192,5.192,0,0,1-2.4-.35Z" transform="translate(334 74)" fill="#022a3a"/>
    <rect id="Rectangle_18860" data-name="Rectangle 18860" width="8.759" height="1.599" transform="translate(924.012 92.777) rotate(-87.782)" fill="#022a3a"/>
    <path id="Path_649860" data-name="Path 649860" d="M593.761,18.9l1.142-8.69,1.8.237,1.754,4.021a24.1,24.1,0,0,1,1.1,3.109l.026,0c.049-1.174.157-2.3.332-3.629l.4-3.03,1.469.193-1.141,8.691-1.638-.216-1.768-4.114a30.663,30.663,0,0,1-1.166-3.209l-.04.008c-.083,1.13-.22,2.279-.409,3.71l-.408,3.107Z" transform="translate(334 74)" fill="#022a3a"/>
    <path id="Path_649861" data-name="Path 649861" d="M606.139,13.472l-2.42-.609.327-1.3,6.415,1.616-.327,1.3-2.445-.615-1.812,7.2-1.55-.39Z" transform="translate(334 74)" fill="#022a3a"/>
    <path id="Path_649862" data-name="Path 649862" d="M615.518,20.128,612.414,19l-.88,2.42L615,22.681l-.449,1.235-4.974-1.808,2.993-8.237,4.791,1.74-.449,1.235-3.288-1.2-.772,2.127,3.1,1.128Z" transform="translate(334 74)" fill="#022a3a"/>
    <path id="Path_649863" data-name="Path 649863" d="M619.918,16.825a15.323,15.323,0,0,1,2.251.9,4.057,4.057,0,0,1,2.12,1.818,2.217,2.217,0,0,1-.093,1.907,2.336,2.336,0,0,1-2.389,1.276l-.017.035a2.229,2.229,0,0,1,.355,2.054,17.693,17.693,0,0,0-.454,2.5l-1.483-.725a12.441,12.441,0,0,1,.383-2.113c.28-1.135.067-1.645-.739-2.068l-.724-.353-1.581,3.233-1.424-.7ZM619.642,21l.852.417a1.515,1.515,0,0,0,2.21-.526c.421-.864.008-1.557-.925-2.014a4.585,4.585,0,0,0-.922-.363Z" transform="translate(334 74)" fill="#022a3a"/>
    <path id="Path_649864" data-name="Path 649864" d="M622.971,28.031l4.762-7.353,1.527.989-.143,4.382a24.183,24.183,0,0,1-.342,3.278l.022.015c.548-1.039,1.13-2.009,1.858-3.133l1.66-2.564,1.244.805L628.8,31.8l-1.386-.9.171-4.472a30.8,30.8,0,0,1,.326-3.4l-.04-.01c-.559.984-1.177,1.962-1.961,3.173l-1.7,2.629Z" transform="translate(334 74)" fill="#022a3a"/>
    <path id="Path_649865" data-name="Path 649865" d="M633.373,32.287l-2.161,1.435-1.273-1.05,7.74-4.971,1.574,1.3-3.379,8.568-1.323-1.092.967-2.419Zm2.7.664.842-2.1c.209-.518.478-1.07.7-1.543l-.021-.017c-.422.308-.911.7-1.362,1l-1.894,1.234Z" transform="translate(334 74)" fill="#022a3a"/>
    <path id="Path_649866" data-name="Path 649866" d="M642.658,33.991l-1.746-1.784.957-.937L646.5,36l-.957.937-1.765-1.8-5.3,5.193-1.12-1.143Z" transform="translate(334 74)" fill="#022a3a"/>
    <rect id="Rectangle_18861" data-name="Rectangle 18861" width="8.769" height="1.6" transform="matrix(0.767, -0.641, 0.641, 0.767, 975.082, 117.209)" fill="#022a3a"/>
    <path id="Path_649867" data-name="Path 649867" d="M651.588,49.926c-2.421,1.663-4.812,1.144-6.179-.849-1.4-2.035-.727-4.387,1.393-5.843,2.218-1.522,4.739-1.2,6.136.832,1.447,2.11.705,4.448-1.35,5.86m-3.807-5.314c-1.468,1.007-2.128,2.548-1.26,3.812s2.546,1.184,4.057.146c1.36-.934,2.182-2.491,1.276-3.809s-2.586-1.171-4.073-.149" transform="translate(334 74)" fill="#022a3a"/>
    <path id="Path_649868" data-name="Path 649868" d="M648.691,53.871l7.816-3.959.823,1.623L655,55.251a24.331,24.331,0,0,1-1.946,2.661l.012.023c1-.621,1.988-1.167,3.183-1.772l2.724-1.381.67,1.322-7.816,3.96-.746-1.473,2.4-3.78a30.713,30.713,0,0,1,1.991-2.772l-.029-.029c-.98.569-2.006,1.1-3.293,1.756l-2.8,1.416Z" transform="translate(334 74)" fill="#022a3a"/>
    <path id="Path_649869" data-name="Path 649869" d="M655.567,62.821l-2.591.123-.554-1.554,9.19-.3.686,1.922-7.293,5.621-.576-1.615,2.071-1.58Zm1.98,1.956,1.8-1.373c.445-.338.96-.673,1.393-.966l-.008-.025c-.521.048-1.14.131-1.682.159l-2.258.088Z" transform="translate(334 74)" fill="#022a3a"/>
    <path id="Path_649870" data-name="Path 649870" d="M663.878,68.081l.37,1.556-7.224,1.716.833,3.5-1.3.31-1.2-5.06Z" transform="translate(334 74)" fill="#022a3a"/>
    <path id="Path_649871" data-name="Path 649871" d="M642.9,87.617a55.879,55.879,0,1,1-55.879-55.879A55.879,55.879,0,0,1,642.9,87.617" transform="translate(334 74)" fill="#fff"/>
    <path id="Path_649872" data-name="Path 649872" d="M611.618,77.1" transform="translate(334 74)"/>
    <path id="Path_649873" data-name="Path 649873" d="M626.55,77.1a13.094,13.094,0,0,0-14.569-15.733l1.774,12.966Z" transform="translate(334 74)" fill="#006094"/>
    <path id="Path_649874" data-name="Path 649874" d="M610.455,70.917l-1.774-12.966a13.013,13.013,0,0,0-6.245,2.626Z" transform="translate(334 74)" fill="#39c2d7"/>
    <path id="Path_649875" data-name="Path 649875" d="M611.618,77.1h0L603.6,66.763a13.086,13.086,0,1,0,20.814,13.11Z" transform="translate(334 74)" fill="#a93439"/>
    <path id="Path_649876" data-name="Path 649876" d="M590.426,51.956v8.681l8.947-4.34Z" transform="translate(334 74)" fill="#a53439"/>
    <path id="Path_649877" data-name="Path 649877" d="M590.426,51.956v8.681l8.947-4.34Z" transform="translate(334 74)" fill="none" stroke="#a93439" stroke-linecap="round" stroke-linejoin="round" stroke-width="1"/>
    <line id="Line_620" data-name="Line 620" y2="15.84" transform="translate(923.799 125.956)" fill="none" stroke="#39c2d7" stroke-linecap="round" stroke-linejoin="round" stroke-width="2"/>
    <path id="Path_649878" data-name="Path 649878" d="M628.847,112.924l-39.174-46.17-37.018,46.17Z" transform="translate(334 74)" fill="#004165"/>
    <path id="Path_649879" data-name="Path 649879" d="M628.847,112.924l-39.174-46.17-37.018,46.17Z" transform="translate(334 74)" fill="none" stroke="#39c2d7" stroke-linecap="round" stroke-linejoin="round" stroke-width="2"/>
    <path id="Path_649880" data-name="Path 649880" d="M545.2,112.924h53.221L585.166,98.362l-4.257,2.7L567.647,86.9Z" transform="translate(334 74)" fill="#006094"/>
    <path id="Path_649881" data-name="Path 649881" d="M545.2,112.924h53.221L585.166,98.362l-4.257,2.7L567.647,86.9Z" transform="translate(334 74)" fill="none" stroke="#39c2d7" stroke-linecap="round" stroke-linejoin="round" stroke-width="2"/>
    <path id="Path_649882" data-name="Path 649882" d="M587.022,31.738A55.879,55.879,0,1,0,642.9,87.617a55.879,55.879,0,0,0-55.879-55.879m41.826,85.868H545.2a4.692,4.692,0,0,1-4.225-2.675h-.156l.1-.118a4.694,4.694,0,0,1,.733-4.946L564.1,83.845a4.693,4.693,0,0,1,3.448-1.624,4.79,4.79,0,0,1,2.936.982l15.536-19.377c.018-.022.042-.038.061-.061a5.327,5.327,0,0,1-1.007-3.127V51.957a5.349,5.349,0,0,1,7.684-4.814l8.948,4.341a5.382,5.382,0,0,1,2.986,4.423l.08.039a15.585,15.585,0,0,1,2.694-.644l2.65-.362.535,3.913.964-.132a15.767,15.767,0,0,1,17.546,18.95l-.565,2.612-1.469-.317-.1.474a15.6,15.6,0,0,1-9.921,11.41L632.418,109.9a4.692,4.692,0,0,1,.693,4.952l.071.083h-.109a4.688,4.688,0,0,1-4.225,2.675" transform="translate(334 74)" fill="#022a3a"/>
    <path id="Path_649883" data-name="Path 649883" d="M516.655,87.384A2.387,2.387,0,1,1,514.268,85a2.387,2.387,0,0,1,2.387,2.387" transform="translate(334 74)" fill="#39c2d7"/>
    <path id="Path_649884" data-name="Path 649884" d="M664.151,87.384A2.387,2.387,0,1,1,661.764,85a2.387,2.387,0,0,1,2.387,2.387" transform="translate(334 74)" fill="#39c2d7"/>
  </g>
</svg>
