<svg xmlns="http://www.w3.org/2000/svg" width="174.308" height="174.308" viewBox="0 0 174.308 174.308">
  <g id="pathways-badge-persuasive-influence" transform="translate(-1076.871 -74.23)">
    <path id="Path_650071" data-name="Path 650071" d="M916.179,87.384A86.154,86.154,0,1,1,830.025,1.23a86.153,86.153,0,0,1,86.154,86.154" transform="translate(334 74)" fill="#fff"/>
    <circle id="Ellipse_95" data-name="Ellipse 95" cx="86.154" cy="86.154" r="86.154" transform="translate(1077.871 75.23)" fill="none" stroke="#d6b430" stroke-miterlimit="10" stroke-width="2"/>
    <path id="Path_650072" data-name="Path 650072" d="M887.852,87.384a57.823,57.823,0,1,1-57.823-57.823,57.824,57.824,0,0,1,57.823,57.823" transform="translate(334 74)" fill="#fff"/>
    <path id="Path_650073" data-name="Path 650073" d="M779.038,130.493a13.953,13.953,0,0,1,1.76,1.707,3.959,3.959,0,0,1,1.183,2.409,2.471,2.471,0,0,1-.878,1.928,2.657,2.657,0,0,1-1.988.758,3.865,3.865,0,0,1-2.539-1.449,4.408,4.408,0,0,1-.479-.618l-2.469,2.194-1.054-1.186Zm-2,3.9a3.254,3.254,0,0,0,.47.626c.8.9,1.716,1.05,2.483.368.73-.648.669-1.5-.065-2.325a4.358,4.358,0,0,0-.671-.638Z" transform="translate(334 74)" fill="#022a3a"/>
    <path id="Path_650074" data-name="Path 650074" d="M780.655,140.863a1.72,1.72,0,0,0,.335,2.525,4.754,4.754,0,0,0,1.489.973l-.574.974a5.97,5.97,0,0,1-1.894-1.2,3,3,0,0,1-.251-4.564,3.135,3.135,0,0,1,4.583-.426c1.517,1.386.875,3.09-.064,4.117a3.838,3.838,0,0,1-.495.464Zm2.809,1.052a1.362,1.362,0,0,0,.075-2.028,1.565,1.565,0,0,0-2.129.151Z" transform="translate(334 74)" fill="#022a3a"/>
    <path id="Path_650075" data-name="Path 650075" d="M786.4,143.775c.521-.682.881-1.175,1.2-1.653l1.106.843-.693.993.041.031a1.89,1.89,0,0,1,2.2-.025,1.738,1.738,0,0,1,.276.26l-.915,1.2a2.264,2.264,0,0,0-.341-.325,1.409,1.409,0,0,0-1.87.093,2.79,2.79,0,0,0-.341.361l-1.988,2.6-1.271-.97Z" transform="translate(334 74)" fill="#022a3a"/>
    <path id="Path_650076" data-name="Path 650076" d="M789.022,149.227a3.574,3.574,0,0,0,1.12,1.262c.59.38,1.007.308,1.232-.042s.133-.687-.374-1.338c-.807-1.029-.878-1.878-.466-2.494a2.117,2.117,0,0,1,3.087-.377,3.719,3.719,0,0,1,1.205,1.224l-.874.782a2.856,2.856,0,0,0-.929-1.031c-.48-.309-.891-.249-1.1.079s-.072.664.451,1.341c.736.969.868,1.749.372,2.542-.618.962-1.823,1.176-3.233.268a4.084,4.084,0,0,1-1.377-1.412Z" transform="translate(334 74)" fill="#022a3a"/>
    <path id="Path_650077" data-name="Path 650077" d="M799.722,154.823c-.342.672-.6,1.24-.813,1.715l-1.251-.636.366-.893L798,155a2.285,2.285,0,0,1-2.306.066c-1.032-.524-1.658-1.615-.721-3.456l1.685-3.313,1.424.725-1.56,3.069c-.478.938-.483,1.693.27,2.076a1.348,1.348,0,0,0,1.478-.211,1.476,1.476,0,0,0,.3-.4l1.731-3.4,1.425.724Z" transform="translate(334 74)" fill="#022a3a"/>
    <path id="Path_650078" data-name="Path 650078" d="M804.848,158.918l.151-.694-.037-.014a2.351,2.351,0,0,1-2.049.132,1.879,1.879,0,0,1-1.2-2.464c.562-1.5,2.172-1.751,4.356-.915l.037-.1c.147-.389.231-1.093-.815-1.487a3.353,3.353,0,0,0-1.758-.162l.074-1.082a4.555,4.555,0,0,1,2.337.282,2.367,2.367,0,0,1,1.507,3.413l-.806,2.141a10.139,10.139,0,0,0-.451,1.455Zm.895-2.968c-1.049-.423-2.145-.572-2.483.329a.838.838,0,0,0,.53,1.171,1.293,1.293,0,0,0,1.474-.375,1.1,1.1,0,0,0,.172-.31Z" transform="translate(334 74)" fill="#022a3a"/>
    <path id="Path_650079" data-name="Path 650079" d="M809.034,158.769a3.569,3.569,0,0,0,1.449.865c.677.183,1.053-.011,1.162-.412s-.081-.7-.761-1.163c-1.079-.737-1.4-1.526-1.2-2.237a2.118,2.118,0,0,1,2.829-1.293,3.736,3.736,0,0,1,1.52.8l-.6,1.01a2.834,2.834,0,0,0-1.2-.7c-.552-.15-.925.031-1.026.408s.132.655.835,1.142c.994.7,1.355,1.4,1.123,2.311-.3,1.1-1.383,1.672-3,1.233a4.1,4.1,0,0,1-1.741-.93Z" transform="translate(334 74)" fill="#022a3a"/>
    <path id="Path_650080" data-name="Path 650080" d="M814.876,161.738l1.218-6.212,1.582.31-1.218,6.213Zm3.23-7.619a.9.9,0,1,1-.713-1.027.849.849,0,0,1,.713,1.027" transform="translate(334 74)" fill="#022a3a"/>
    <path id="Path_650081" data-name="Path 650081" d="M820.808,156.348l.654,3.306c.117.575.189,1.094.245,1.623l.039.005c.175-.5.374-.977.607-1.526l1.359-3.075,1.678.193-3.122,6.011-1.562-.179-1.615-6.555Z" transform="translate(334 74)" fill="#022a3a"/>
    <path id="Path_650082" data-name="Path 650082" d="M827.757,160.54a1.722,1.722,0,0,0,1.932,1.662,4.78,4.78,0,0,0,1.758-.266l.221,1.108a5.989,5.989,0,0,1-2.215.364,3,3,0,0,1-3.225-3.237,3.133,3.133,0,0,1,3.134-3.369c2.054.024,2.71,1.722,2.694,3.113a3.819,3.819,0,0,1-.061.675Zm2.8-1.085a1.361,1.361,0,0,0-1.295-1.562,1.563,1.563,0,0,0-1.487,1.529Z" transform="translate(334 74)" fill="#022a3a"/>
    <rect id="Rectangle_18870" data-name="Rectangle 18870" width="1.598" height="8.759" transform="translate(1170.758 228.178) rotate(-6.608)" fill="#022a3a"/>
    <path id="Path_650083" data-name="Path 650083" d="M841.3,157.975c-.146-.713-.281-1.31-.429-1.837l1.376-.282.267.915.038-.008a2.285,2.285,0,0,1,1.756-1.475c1.083-.222,2.347.249,2.75,2.212l.754,3.682-1.568.321-.717-3.5c-.183-.892-.653-1.5-1.506-1.324a1.342,1.342,0,0,0-1.035,1.167,1.571,1.571,0,0,0,.041.523l.746,3.644-1.58.323Z" transform="translate(334 74)" fill="#022a3a"/>
    <path id="Path_650084" data-name="Path 650084" d="M850.748,160.388l-1.6-4.882-.815.267-.372-1.137.815-.267-.085-.259a2.724,2.724,0,0,1,.24-2.282,3.371,3.371,0,0,1,1.915-1.337,4.673,4.673,0,0,1,2.238-.227l2.766,8.454-1.533.5-2.495-7.626a1.787,1.787,0,0,0-.835.123c-.927.3-1.054,1.084-.792,1.887l.089.272,1.236-.405.372,1.138-1.223.4,1.6,4.882Z" transform="translate(334 74)" fill="#022a3a"/>
    <path id="Path_650085" data-name="Path 650085" d="M862.893,153.58c.315.685.6,1.241.84,1.7l-1.276.586-.472-.841-.024.01a2.287,2.287,0,0,1-1.381,1.852c-1.05.483-2.3.3-3.159-1.581l-1.553-3.377,1.453-.668,1.439,3.129c.44.957,1.029,1.43,1.8,1.077a1.347,1.347,0,0,0,.752-1.29,1.464,1.464,0,0,0-.124-.487l-1.6-3.472,1.452-.668Z" transform="translate(334 74)" fill="#022a3a"/>
    <path id="Path_650086" data-name="Path 650086" d="M865.792,151.036a1.719,1.719,0,0,0,2.515.4,4.764,4.764,0,0,0,1.356-1.149l.77.826a5.965,5.965,0,0,1-1.692,1.473,3,3,0,0,1-4.445-1.059,3.135,3.135,0,0,1,.9-4.513c1.76-1.058,3.21.042,3.927,1.234a3.919,3.919,0,0,1,.3.606Zm1.808-2.391a1.361,1.361,0,0,0-1.923-.649,1.563,1.563,0,0,0-.461,2.082Z" transform="translate(334 74)" fill="#022a3a"/>
    <path id="Path_650087" data-name="Path 650087" d="M870.176,146.252c-.441-.578-.822-1.056-1.185-1.466l1.116-.852.637.707.032-.024a2.283,2.283,0,0,1,.938-2.091c.878-.67,2.222-.8,3.437.795l2.279,2.985-1.271.97-2.169-2.84c-.552-.724-1.239-1.066-1.931-.538a1.344,1.344,0,0,0-.424,1.5,1.64,1.64,0,0,0,.264.453l2.256,2.954-1.281.978Z" transform="translate(334 74)" fill="#022a3a"/>
    <path id="Path_650088" data-name="Path 650088" d="M882.778,141.122a4.663,4.663,0,0,1-1.08,1.468,3.04,3.04,0,0,1-4.585-.1,3.273,3.273,0,0,1,.239-4.875,3.965,3.965,0,0,1,1.329-.845l.614,1.065a2.8,2.8,0,0,0-1.048.651,2.05,2.05,0,0,0,2.811,2.975,3.1,3.1,0,0,0,.747-1.045Z" transform="translate(334 74)" fill="#022a3a"/>
    <path id="Path_650089" data-name="Path 650089" d="M883.109,137.054a1.721,1.721,0,0,0,2.518-.381,4.77,4.77,0,0,0,.945-1.505l.983.555a5.947,5.947,0,0,1-1.168,1.915,2.993,2.993,0,0,1-4.554.334,3.133,3.133,0,0,1-.511-4.571c1.357-1.541,3.072-.931,4.115-.012a3.907,3.907,0,0,1,.473.486Zm1-2.826a1.361,1.361,0,0,0-2.028-.037,1.563,1.563,0,0,0,.19,2.124Z" transform="translate(334 74)" fill="#022a3a"/>
    <path id="Path_650090" data-name="Path 650090" d="M754.92,72.159l-.6,2.423-1.3-.324,1.6-6.423,1.3.324-.61,2.448,7.206,1.795-.387,1.552Z" transform="translate(334 74)" fill="#022a3a"/>
    <path id="Path_650091" data-name="Path 650091" d="M761.914,60.191c2.752,1.027,3.7,3.282,2.854,5.547-.864,2.313-3.175,3.115-5.586,2.215-2.521-.941-3.707-3.188-2.843-5.5.9-2.4,3.237-3.133,5.575-2.26m-2.166,6.17c1.669.623,3.31.278,3.846-1.158s-.493-2.765-2.21-3.406c-1.547-.578-3.294-.356-3.854,1.141s.526,2.791,2.218,3.423" transform="translate(334 74)" fill="#022a3a"/>
    <path id="Path_650092" data-name="Path 650092" d="M765.352,57.785l1.848,1.822-.768,1.461-6.449-6.558.948-1.806,9.079,1.553-.8,1.518-2.566-.452Zm.1-2.782-2.23-.393c-.55-.1-1.146-.25-1.655-.371l-.012.024c.388.35.869.749,1.256,1.129l1.6,1.6Z" transform="translate(334 74)" fill="#022a3a"/>
    <path id="Path_650093" data-name="Path 650093" d="M769.391,52.059a4.424,4.424,0,0,0,1.651-1.44c.577-.85.5-1.593-.092-1.994-.549-.372-1.12-.225-2.08.474-1.241.9-2.393,1.236-3.436.528-1.184-.8-1.416-2.4-.352-3.975a4.63,4.63,0,0,1,1.548-1.494l.846,1.044a3.719,3.719,0,0,0-1.321,1.209c-.57.838-.366,1.51.054,1.8.559.379,1.1.135,2.135-.578,1.326-.938,2.377-1.121,3.421-.413,1.161.787,1.574,2.355.306,4.227a5.224,5.224,0,0,1-1.78,1.652Z" transform="translate(334 74)" fill="#022a3a"/>
    <path id="Path_650094" data-name="Path 650094" d="M770.265,41.212l-1.588,1.925-1.032-.852,4.209-5.1,1.033.852-1.6,1.945,5.723,4.722-1.016,1.234Z" transform="translate(334 74)" fill="#022a3a"/>
    <path id="Path_650095" data-name="Path 650095" d="M782.418,34.179c-.807-.794-1.782-1.751-2.576-2.628l-.029.026c.514.977,1.051,2.092,1.516,3.167l1.646,3.651-.907.839-3.4-1.951c-1.008-.59-2.05-1.256-2.964-1.9l-.018.018c.749.865,1.656,1.921,2.421,2.843l2.25,2.717-1.1,1.016-5.526-6.825,1.545-1.432,3.234,1.807c.927.542,1.834,1.119,2.659,1.684l.028-.027c-.473-.855-.987-1.849-1.437-2.833l-1.5-3.4,1.525-1.414,6.327,6.084-1.144,1.06Z" transform="translate(334 74)" fill="#022a3a"/>
    <path id="Path_650096" data-name="Path 650096" d="M787.578,31.558l.8,2.469-1.355.943-2.7-8.794,1.673-1.167,7.346,5.562-1.409.981-2.07-1.584Zm1.367-2.426-1.8-1.376c-.443-.341-.9-.75-1.3-1.092l-.02.015c.182.49.426,1.066.6,1.581l.678,2.158Z" transform="translate(334 74)" fill="#022a3a"/>
    <path id="Path_650097" data-name="Path 650097" d="M793.8,28.334a4.416,4.416,0,0,0,2.129-.516c.9-.488,1.177-1.183.837-1.812-.316-.582-.89-.715-2.064-.538-1.515.229-2.692-.007-3.292-1.115-.679-1.257-.147-2.786,1.522-3.688A4.635,4.635,0,0,1,795,20.052l.27,1.317a3.7,3.7,0,0,0-1.73.463c-.891.481-1.02,1.171-.779,1.617.321.594.915.628,2.16.472,1.61-.22,2.625.1,3.225,1.21.667,1.235.31,2.816-1.678,3.891a5.219,5.219,0,0,1-2.34.645Z" transform="translate(334 74)" fill="#022a3a"/>
    <path id="Path_650098" data-name="Path 650098" d="M799.588,19.1l-2.306.958-.513-1.237,6.112-2.539.514,1.236-2.33.968,2.849,6.857-1.477.614Z" transform="translate(334 74)" fill="#022a3a"/>
    <path id="Path_650099" data-name="Path 650099" d="M811.08,18.835l-3.163.953.743,2.465,3.536-1.065.38,1.257-5.068,1.528-2.53-8.392,4.881-1.472.379,1.258-3.349,1.01.653,2.166,3.162-.953Z" transform="translate(334 74)" fill="#022a3a"/>
    <path id="Path_650100" data-name="Path 650100" d="M812.617,13.553a15.122,15.122,0,0,1,2.342-.63,4.064,4.064,0,0,1,2.788.185,2.22,2.22,0,0,1,1.068,1.583,2.338,2.338,0,0,1-1.148,2.455l.006.038a2.228,2.228,0,0,1,1.517,1.432,17.475,17.475,0,0,0,1.133,2.273L818.7,21.2a12.336,12.336,0,0,1-.961-1.922c-.456-1.077-.933-1.358-1.831-1.213l-.792.15.672,3.538-1.558.3Zm2.281,3.51.933-.177c1.06-.2,1.617-.89,1.455-1.745-.18-.946-.927-1.254-1.949-1.059a4.628,4.628,0,0,0-.956.26Z" transform="translate(334 74)" fill="#022a3a"/>
    <path id="Path_650101" data-name="Path 650101" d="M821.639,19a4.436,4.436,0,0,0,2.158.383c1.024-.084,1.554-.611,1.495-1.323-.054-.661-.527-1.013-1.674-1.323-1.481-.4-2.463-1.088-2.567-2.345-.118-1.425.984-2.611,2.876-2.767a4.628,4.628,0,0,1,2.135.267l-.283,1.315a3.7,3.7,0,0,0-1.77-.271c-1.011.083-1.406.663-1.364,1.168.055.674.586.943,1.789,1.3,1.562.445,2.364,1.148,2.468,2.4.115,1.4-.847,2.7-3.1,2.89a5.192,5.192,0,0,1-2.4-.35Z" transform="translate(334 74)" fill="#022a3a"/>
    <rect id="Rectangle_18871" data-name="Rectangle 18871" width="8.759" height="1.599" transform="translate(1165.994 94.317) rotate(-87.782)" fill="#022a3a"/>
    <path id="Path_650102" data-name="Path 650102" d="M835.77,20.44l1.142-8.69,1.8.237,1.754,4.021a24.1,24.1,0,0,1,1.1,3.109l.026,0c.049-1.174.157-2.3.332-3.629l.4-3.03,1.469.193-1.141,8.691-1.638-.216-1.768-4.114a30.663,30.663,0,0,1-1.166-3.209l-.04.008c-.083,1.13-.22,2.279-.409,3.71l-.408,3.107Z" transform="translate(334 74)" fill="#022a3a"/>
    <path id="Path_650103" data-name="Path 650103" d="M848.148,15.011l-2.42-.609.327-1.3,6.415,1.616-.327,1.3L849.7,15.4l-1.812,7.2-1.55-.39Z" transform="translate(334 74)" fill="#022a3a"/>
    <path id="Path_650104" data-name="Path 650104" d="M857.527,21.667l-3.1-1.128-.88,2.42,3.471,1.261-.449,1.235-4.974-1.808,2.993-8.237,4.791,1.74-.449,1.234-3.288-1.194-.772,2.127,3.1,1.128Z" transform="translate(334 74)" fill="#022a3a"/>
    <path id="Path_650105" data-name="Path 650105" d="M861.927,18.364a15.323,15.323,0,0,1,2.251.9,4.057,4.057,0,0,1,2.12,1.818,2.215,2.215,0,0,1-.093,1.906,2.336,2.336,0,0,1-2.389,1.277l-.017.035a2.229,2.229,0,0,1,.355,2.054,17.665,17.665,0,0,0-.454,2.5l-1.483-.725a12.447,12.447,0,0,1,.383-2.113c.28-1.135.067-1.645-.739-2.068l-.724-.353-1.581,3.233-1.424-.7Zm-.276,4.175.852.417a1.516,1.516,0,0,0,2.21-.525c.421-.865.008-1.558-.925-2.015a4.585,4.585,0,0,0-.922-.363Z" transform="translate(334 74)" fill="#022a3a"/>
    <path id="Path_650106" data-name="Path 650106" d="M864.955,29.556l4.762-7.353,1.527.989-.143,4.382a24.183,24.183,0,0,1-.342,3.278l.022.015c.548-1.039,1.13-2.009,1.858-3.133l1.66-2.564,1.244.805-4.762,7.354-1.386-.9.171-4.472a30.8,30.8,0,0,1,.326-3.4l-.04-.01c-.559.984-1.177,1.962-1.961,3.173l-1.7,2.629Z" transform="translate(334 74)" fill="#022a3a"/>
    <path id="Path_650107" data-name="Path 650107" d="M875.361,33.808,873.2,35.243l-1.273-1.05,7.74-4.971,1.574,1.3-3.379,8.568L876.539,38l.967-2.419Zm2.7.664.842-2.1c.209-.518.478-1.07.7-1.544l-.021-.016c-.422.308-.911.7-1.362,1l-1.894,1.234Z" transform="translate(334 74)" fill="#022a3a"/>
    <path id="Path_650108" data-name="Path 650108" d="M884.638,35.508l-1.746-1.781.956-.937,4.629,4.722-.956.937-1.765-1.8-5.3,5.193L879.34,40.7Z" transform="translate(334 74)" fill="#022a3a"/>
    <rect id="Rectangle_18872" data-name="Rectangle 18872" width="8.761" height="1.598" transform="matrix(0.767, -0.642, 0.642, 0.767, 1217.074, 118.727)" fill="#022a3a"/>
    <path id="Path_650109" data-name="Path 650109" d="M893.6,51.465c-2.421,1.663-4.811,1.144-6.179-.849-1.4-2.035-.727-4.387,1.394-5.843,2.217-1.522,4.738-1.2,6.135.832,1.448,2.11.706,4.448-1.35,5.86m-3.807-5.314c-1.468,1.007-2.128,2.548-1.26,3.812s2.546,1.184,4.057.146c1.36-.934,2.182-2.491,1.277-3.809s-2.586-1.171-4.074-.149" transform="translate(334 74)" fill="#022a3a"/>
    <path id="Path_650110" data-name="Path 650110" d="M890.7,55.41l7.816-3.959.823,1.623-2.329,3.716a24.235,24.235,0,0,1-1.946,2.661l.012.023c1-.621,1.988-1.167,3.183-1.772l2.724-1.381.67,1.322-7.816,3.96-.746-1.473,2.4-3.78a30.726,30.726,0,0,1,1.991-2.772l-.029-.029c-.98.569-2.006,1.1-3.293,1.756l-2.8,1.416Z" transform="translate(334 74)" fill="#022a3a"/>
    <path id="Path_650111" data-name="Path 650111" d="M897.576,64.359l-2.591.123-.554-1.554,9.19-.3.686,1.922-7.293,5.621-.576-1.615,2.071-1.58Zm1.98,1.956,1.8-1.373c.445-.338.96-.673,1.393-.966l-.008-.025c-.521.048-1.14.131-1.682.159L898.8,64.2Z" transform="translate(334 74)" fill="#022a3a"/>
    <path id="Path_650112" data-name="Path 650112" d="M905.887,69.621l.37,1.556-7.224,1.716.833,3.5-1.3.31-1.2-5.06Z" transform="translate(334 74)" fill="#022a3a"/>
    <path id="Path_650113" data-name="Path 650113" d="M816.482,72.6a19.993,19.993,0,0,0-.142,7.451,10.66,10.66,0,0,1-2.282,8.754l-.379.478a8.09,8.09,0,0,0-1.367,2.028,1.307,1.307,0,0,0,.359.319,12.536,12.536,0,0,0,1.478.892c.864.463,1.68.9,1.945,1.824A2.11,2.11,0,0,1,815.843,96a3.968,3.968,0,0,0-.364.74,1.325,1.325,0,0,1,.07.137,3.027,3.027,0,0,0,.424.656l.722.775-.571.9a3.814,3.814,0,0,0-.311.6,2.358,2.358,0,0,1,1.846,2.311,9.729,9.729,0,0,1,0,1.537c-.071,1.339-.035,1.805.661,2.211.374.221,2.054.822,7.887-.635a29.435,29.435,0,0,0,7.641,0c5.83,1.457,7.509.854,7.887.636.7-.407.732-.873.66-2.212a9.851,9.851,0,0,1,0-1.537,2.359,2.359,0,0,1,1.846-2.311,3.7,3.7,0,0,0-.314-.6l-.6-.91.768-.775h0a3.04,3.04,0,0,0,.409-.64.927.927,0,0,0,.079-.181c0,.031-.055-.14-.373-.7a2.111,2.111,0,0,1-.251-1.662c.265-.923,1.08-1.361,1.943-1.824a12.38,12.38,0,0,0,1.478-.892,1.165,1.165,0,0,0,.368-.35,8.914,8.914,0,0,0-1.374-2l-.409-.518a10.674,10.674,0,0,1-2.24-8.79,19.876,19.876,0,0,0-.154-7.375c-.575-2.59-3.8-7.6-7.267-10.437a21.594,21.594,0,0,0-6.274-3.254,21.6,21.6,0,0,0-6.279,3.254c-3.462,2.836-6.692,7.847-7.267,10.437" transform="translate(334 74)" fill="#d6b430"/>
    <path id="Path_650114" data-name="Path 650114" d="M816.97,108.176c-2.165-1.263-2.056-3.31-1.984-4.665a7.969,7.969,0,0,0,.011-1.128l0-.02a2.361,2.361,0,0,1-1.59-1.015,2.825,2.825,0,0,1,.025-2.778c-.089-.147-.181-.31-.273-.493a2.865,2.865,0,0,1,.135-2.981c-.133-.076-.281-.155-.408-.223a14.892,14.892,0,0,1-1.785-1.085,3.162,3.162,0,0,1-1.438-2.126c-.188-1.385.743-2.559,1.924-4.046l.4-.506a7.968,7.968,0,0,0,1.709-6.674,22.622,22.622,0,0,1,.175-8.42c.771-3.467,4.523-8.933,8.193-11.934l.015-.012A21.086,21.086,0,0,1,825.7,57.8a26.119,26.119,0,0,0-16.1,2.21c-11.7,5.76-9.836,20.365-8.986,24.7a20.252,20.252,0,0,0,4.66,9.439,14.482,14.482,0,0,1,3.055,5.29c1.063,3.8-1.712,11.406-4.852,18.742h20.518a48.041,48.041,0,0,1,2.526-7.867,14.117,14.117,0,0,1,1.308-2.673,5.164,5.164,0,0,0-.974.177c-5.009,1.253-8.149,1.365-9.882.351" transform="translate(334 74)" fill="#d6b430"/>
    <path id="Path_650115" data-name="Path 650115" d="M837.142,61.117c3.62,2.962,7.075,8.227,7.733,11.188a21.353,21.353,0,0,1,.165,7.9,9.313,9.313,0,0,0,1.974,7.733c1.81,2.3,2.961,3.455,1.152,4.771s-3.456,1.481-2.8,2.633.659,1.48.33,2.138a4.1,4.1,0,0,1-.658.988s.987,1.48.493,2.139c-.493.822-1.645,0-1.81,1.645s.658,3.62-1.316,4.771-6.91,0-8.885-.493a4.491,4.491,0,0,0-2.266-.105,7.68,7.68,0,0,1,.965,1.223,5.107,5.107,0,0,1,.976.178c5.009,1.254,8.15,1.367,9.883.353,2.166-1.264,2.056-3.311,1.984-4.667a7.782,7.782,0,0,1-.01-1.127.081.081,0,0,1,0-.021,2.352,2.352,0,0,0,1.589-1.014,2.822,2.822,0,0,0-.025-2.779c.089-.146.182-.309.273-.492a2.872,2.872,0,0,0-.134-2.982c.133-.075.281-.154.406-.222a14.735,14.735,0,0,0,1.785-1.085,3.151,3.151,0,0,0,1.438-2.126c.19-1.385-.743-2.559-1.922-4.047l-.431-.544a7.989,7.989,0,0,1-1.668-6.711,22.514,22.514,0,0,0-.187-8.345c-.77-3.466-4.523-8.932-8.193-11.933l-.014-.012a20.99,20.99,0,0,0-3.615-2.264c-.749.129-1.473.286-2.177.466a21.254,21.254,0,0,1,4.96,2.845" transform="translate(334 74)" fill="#022a3a"/>
    <path id="Path_650116" data-name="Path 650116" d="M829.137,108.073a12.417,12.417,0,0,0-1.374,2.732,40.029,40.029,0,0,0-2.632,8.721H801.438c2.3-5.265,6.746-15.631,5.594-19.744-1.151-4.443-6.087-6.417-7.733-14.808s-.987-20.9,9.708-26.161a27.983,27.983,0,0,1,18.778-1.956c.72-.286,1.471-.541,2.241-.775a29.9,29.9,0,0,0-21.609,1.531c-3.39,1.669-14.158,8.591-10.431,27.619a22.84,22.84,0,0,0,5.18,10.574,12.176,12.176,0,0,1,2.578,4.336c1.06,3.785-3.9,15.122-5.531,18.847l-.82,1.874h26.918l.147-1.172a38.9,38.9,0,0,1,2.556-8.412,12.5,12.5,0,0,1,1.011-2.139,4.127,4.127,0,0,0-.888-1.067" transform="translate(334 74)" fill="#022a3a"/>
    <path id="Path_650117" data-name="Path 650117" d="M827.826,107.648a14.27,14.27,0,0,0-1.308,2.673,48.215,48.215,0,0,0-2.526,7.868H803.475c3.139-7.337,5.915-14.947,4.852-18.743a14.507,14.507,0,0,0-3.055-5.289,20.249,20.249,0,0,1-4.66-9.439c-.851-4.339-2.716-18.944,8.986-24.7a26.109,26.109,0,0,1,16.1-2.209c.669-.337,1.361-.658,2.09-.947a27.983,27.983,0,0,0-18.778,1.956c-10.7,5.265-11.353,17.77-9.707,26.161s6.581,10.365,7.733,14.807c1.151,4.114-3.291,14.479-5.6,19.744h23.693a39.99,39.99,0,0,1,2.633-8.72,12.332,12.332,0,0,1,1.373-2.732,1.844,1.844,0,0,0-1.311-.426" transform="translate(334 74)" fill="#022a3a"/>
    <path id="Path_650118" data-name="Path 650118" d="M833.522,106.528c1.974.494,6.91,1.645,8.885.494s1.151-3.126,1.316-4.772,1.316-.822,1.81-1.645c.494-.658-.494-2.139-.494-2.139a4.073,4.073,0,0,0,.658-.987c.33-.658.33-.987-.329-2.139s.988-1.316,2.8-2.633.658-2.468-1.152-4.771a9.317,9.317,0,0,1-1.975-7.733,21.332,21.332,0,0,0-.164-7.9c-.658-2.961-4.114-8.226-7.733-11.188a21.254,21.254,0,0,0-4.96-2.845c-.745.19-1.468.4-2.154.633a21.594,21.594,0,0,1,6.274,3.254c3.462,2.835,6.692,7.847,7.267,10.437a19.876,19.876,0,0,1,.154,7.375,10.674,10.674,0,0,0,2.24,8.79l.409.517a8.96,8.96,0,0,1,1.374,2,1.183,1.183,0,0,1-.369.35,12.242,12.242,0,0,1-1.477.892c-.863.464-1.678.9-1.943,1.825a2.111,2.111,0,0,0,.25,1.661c.319.557.377.728.374.7a.935.935,0,0,1-.08.181,3.076,3.076,0,0,1-.409.64h0l-.768.775.6.91a3.659,3.659,0,0,1,.314.6,2.356,2.356,0,0,0-1.846,2.31,9.732,9.732,0,0,0,0,1.537c.072,1.339.036,1.805-.661,2.213-.377.218-2.057.82-7.886-.636a5.2,5.2,0,0,0-3.822.248,5.056,5.056,0,0,1,1.232.944,4.5,4.5,0,0,1,2.266.105" transform="translate(334 74)" fill="#022a3a"/>
    <path id="Path_650119" data-name="Path 650119" d="M856.884,95.806a22.836,22.836,0,0,0,5.179-10.574c3.731-19.026-7.039-25.949-10.429-27.619a29.9,29.9,0,0,0-21.608-1.531,27.2,27.2,0,0,1,4.332,1.724,26.123,26.123,0,0,1,16.1,2.208c11.7,5.761,9.836,20.364,8.984,24.7a20.253,20.253,0,0,1-4.658,9.438,14.485,14.485,0,0,0-3.049,5.266c-1.07,3.819,1.706,11.431,4.846,18.767H836.058a48.119,48.119,0,0,0-2.522-7.857,14.237,14.237,0,0,0-1.316-2.685c-.709-.036-1.424.246-2.2,1.495a12.546,12.546,0,0,1,1.016,2.149,38.822,38.822,0,0,1,2.552,8.4l.147,1.171h26.918l-.82-1.874c-1.63-3.725-6.59-15.062-5.525-18.872a12.194,12.194,0,0,1,2.572-4.311" transform="translate(334 74)" fill="#022a3a"/>
    <path id="Path_650120" data-name="Path 650120" d="M827.826,107.648a1.844,1.844,0,0,1,1.311.426,3.819,3.819,0,0,1,2.119-1.65,5.006,5.006,0,0,0-1.232-.944,6.037,6.037,0,0,0-2.2,2.168" transform="translate(334 74)" fill="#022a3a"/>
    <path id="Path_650121" data-name="Path 650121" d="M826.2,105.231c-5.833,1.456-7.513.855-7.886.635-.7-.406-.733-.873-.661-2.211a9.744,9.744,0,0,0,0-1.538,2.356,2.356,0,0,0-1.845-2.31,3.728,3.728,0,0,1,.311-.6l.57-.9-.722-.774a3.007,3.007,0,0,1-.423-.656,1.227,1.227,0,0,0-.071-.137,3.929,3.929,0,0,1,.365-.741,2.117,2.117,0,0,0,.251-1.661c-.266-.923-1.082-1.361-1.945-1.824a12.565,12.565,0,0,1-1.479-.893,1.328,1.328,0,0,1-.359-.318,8.122,8.122,0,0,1,1.368-2.029l.378-.478a10.657,10.657,0,0,0,2.282-8.753,19.994,19.994,0,0,1,.142-7.451c.575-2.59,3.8-7.6,7.268-10.437a21.57,21.57,0,0,1,6.278-3.254c.687-.235,1.41-.443,2.154-.633.7-.179,1.429-.337,2.177-.466a27.1,27.1,0,0,0-4.332-1.723c-.771.233-1.521.489-2.242.775s-1.42.61-2.089.947a21.083,21.083,0,0,0-3.618,2.265l-.015.012c-3.67,3-7.422,8.467-8.193,11.934a22.622,22.622,0,0,0-.175,8.42,7.968,7.968,0,0,1-1.709,6.674l-.4.506c-1.181,1.487-2.112,2.662-1.924,4.046a3.16,3.16,0,0,0,1.438,2.126,14.914,14.914,0,0,0,1.785,1.086c.127.068.274.146.408.222a2.867,2.867,0,0,0-.135,2.982c.092.182.184.346.273.492a2.825,2.825,0,0,0-.025,2.778,2.357,2.357,0,0,0,1.59,1.015l0,.021a7.792,7.792,0,0,1-.01,1.127c-.072,1.356-.182,3.4,1.984,4.665,1.733,1.014,4.873.9,9.882-.351a5.153,5.153,0,0,1,.973-.177,6.039,6.039,0,0,1,2.2-2.168,5.167,5.167,0,0,0-3.82-.249" transform="translate(334 74)" fill="#022a3a"/>
    <path id="Path_650122" data-name="Path 650122" d="M829.137,108.073a4.127,4.127,0,0,1,.888,1.067c.771-1.248,1.486-1.53,2.2-1.494a7.693,7.693,0,0,0-.965-1.223,3.812,3.812,0,0,0-2.119,1.65" transform="translate(334 74)" fill="#022a3a"/>
    <path id="Path_650123" data-name="Path 650123" d="M830.025,29.561a57.823,57.823,0,1,0,57.824,57.823,57.823,57.823,0,0,0-57.824-57.823m.419,95.983h-38.21l3.691-8.432c5.115-11.688,5.355-15.008,5.285-15.8a10.192,10.192,0,0,0-1.724-2.612,27.26,27.26,0,0,1-6.093-12.565c-4.366-22.289,8.812-30.679,12.956-32.719,7.075-3.483,23.677-2.224,23.677-2.224s16.6-1.259,23.676,2.223c4.144,2.04,17.326,10.43,12.955,32.72a27.238,27.238,0,0,1-6.084,12.555l0,0a10.123,10.123,0,0,0-1.721,2.587c-.078.773.133,4.073,5.277,15.832l3.691,8.432Z" transform="translate(334 74)" fill="#022a3a"/>
    <path id="Path_650124" data-name="Path 650124" d="M758.664,87.384A2.387,2.387,0,1,1,756.277,85a2.387,2.387,0,0,1,2.387,2.387" transform="translate(334 74)" fill="#d6b430"/>
    <path id="Path_650125" data-name="Path 650125" d="M906.16,87.384A2.386,2.386,0,1,1,903.773,85a2.387,2.387,0,0,1,2.387,2.387" transform="translate(334 74)" fill="#d6b430"/>
  </g>
</svg>
