<svg xmlns="http://www.w3.org/2000/svg" width="174.308" height="174.308" viewBox="0 0 174.308 174.308">
  <g id="pathways-badge-presentation-mastery" transform="translate(-1316.504 -74.23)">
    <path id="Path_649951" data-name="Path 649951" d="M1155.813,87.384A86.154,86.154,0,1,1,1069.659,1.23a86.153,86.153,0,0,1,86.154,86.154" transform="translate(334 74)" fill="#fff"/>
    <circle id="Ellipse_93" data-name="Ellipse 93" cx="86.154" cy="86.154" r="86.154" transform="translate(1317.504 75.23)" fill="none" stroke="#772432" stroke-miterlimit="10" stroke-width="2"/>
    <path id="Path_649952" data-name="Path 649952" d="M1017.019,129.828a13.886,13.886,0,0,1,1.653,1.812,3.978,3.978,0,0,1,1.033,2.479,2.48,2.48,0,0,1-.995,1.872,2.657,2.657,0,0,1-2.032.634,3.868,3.868,0,0,1-2.448-1.6,4.521,4.521,0,0,1-.44-.646l-2.6,2.038-.978-1.249Zm-2.236,3.769a3.222,3.222,0,0,0,.431.655c.738.942,1.648,1.154,2.457.52.768-.6.76-1.456.078-2.326a4.442,4.442,0,0,0-.631-.679Z" transform="translate(334 74)" fill="#022a3a"/>
    <path id="Path_649953" data-name="Path 649953" d="M1018.454,138.462c.622-.59,1.057-1.02,1.444-1.441l.957,1.009-.84.869.035.038a1.887,1.887,0,0,1,2.17.324,1.664,1.664,0,0,1,.231.3l-1.094,1.038a2.242,2.242,0,0,0-.284-.376,1.409,1.409,0,0,0-1.861-.205,2.742,2.742,0,0,0-.394.3l-2.376,2.254-1.1-1.16Z" transform="translate(334 74)" fill="#022a3a"/>
    <path id="Path_649954" data-name="Path 649954" d="M1021.827,144.072a1.72,1.72,0,0,0,.379,2.519,4.743,4.743,0,0,0,1.505.947l-.556.984a5.965,5.965,0,0,1-1.916-1.171,3,3,0,0,1-.33-4.558,3.136,3.136,0,0,1,4.575-.507c1.541,1.36.929,3.075.009,4.119a3.949,3.949,0,0,1-.487.472Zm2.827,1a1.363,1.363,0,0,0,.039-2.03,1.566,1.566,0,0,0-2.126.188Z" transform="translate(334 74)" fill="#022a3a"/>
    <path id="Path_649955" data-name="Path 649955" d="M1025.92,149.149a3.567,3.567,0,0,0,1.049,1.322c.568.412.989.364,1.233.027s.171-.68-.3-1.358c-.748-1.073-.773-1.925-.327-2.517a2.119,2.119,0,0,1,3.1-.208,3.729,3.729,0,0,1,1.137,1.29l-.917.733a2.834,2.834,0,0,0-.871-1.081c-.463-.335-.876-.3-1.1.018s-.108.66.376,1.365a2.052,2.052,0,0,1,.232,2.56c-.672.927-1.886,1.074-3.244.09a4.083,4.083,0,0,1-1.3-1.487Z" transform="translate(334 74)" fill="#022a3a"/>
    <path id="Path_649956" data-name="Path 649956" d="M1032.778,152.324a1.721,1.721,0,0,0,.858,2.4,4.79,4.79,0,0,0,1.66.639l-.356,1.072a5.973,5.973,0,0,1-2.1-.778,3,3,0,0,1-1.2-4.41,3.136,3.136,0,0,1,4.391-1.381c1.775,1.037,1.506,2.838.8,4.04a3.875,3.875,0,0,1-.386.558Zm2.968.438a1.363,1.363,0,0,0-.354-2,1.565,1.565,0,0,0-2.049.6Z" transform="translate(334 74)" fill="#022a3a"/>
    <path id="Path_649957" data-name="Path 649957" d="M1039.1,153.882c.294-.667.528-1.231.713-1.747l1.285.567-.311.9.036.015a2.286,2.286,0,0,1,2.285-.186c1.012.446,1.77,1.563.962,3.4l-1.517,3.439-1.464-.645,1.444-3.273c.367-.833.336-1.6-.461-1.952a1.342,1.342,0,0,0-1.521.353,1.632,1.632,0,0,0-.269.449l-1.5,3.4-1.477-.652Z" transform="translate(334 74)" fill="#022a3a"/>
    <path id="Path_649958" data-name="Path 649958" d="M1049.4,154.017l-.566,1.716,1.444.476-.375,1.136-1.443-.476-.876,2.654c-.242.728-.17,1.176.41,1.367a2.363,2.363,0,0,0,.617.122l-.358,1.168a3.516,3.516,0,0,1-1.148-.214,1.849,1.849,0,0,1-1.145-.926,2.521,2.521,0,0,1,.085-1.834l.933-2.826-.864-.285.375-1.136.863.285.448-1.358Z" transform="translate(334 74)" fill="#022a3a"/>
    <path id="Path_649959" data-name="Path 649959" d="M1053.911,163.647l.058-.707-.038-.009a2.352,2.352,0,0,1-2.014.4,1.881,1.881,0,0,1-1.514-2.285c.361-1.557,1.924-2.023,4.2-1.483l.023-.1c.093-.4.084-1.114-1.005-1.366a3.365,3.365,0,0,0-1.765.072l-.069-1.083a4.552,4.552,0,0,1,2.354-.029,2.368,2.368,0,0,1,1.947,3.185l-.516,2.229a10.2,10.2,0,0,0-.254,1.5Zm.495-3.061c-1.095-.28-2.2-.283-2.42.654a.839.839,0,0,0,.682,1.092,1.294,1.294,0,0,0,1.412-.567,1.117,1.117,0,0,0,.13-.33Z" transform="translate(334 74)" fill="#022a3a"/>
    <path id="Path_649960" data-name="Path 649960" d="M1060.771,156.571l-.246,1.79,1.507.207-.162,1.185-1.507-.207-.381,2.769c-.105.759.047,1.187.652,1.27a2.381,2.381,0,0,0,.629.008l-.14,1.214a3.527,3.527,0,0,1-1.168,0,1.85,1.85,0,0,1-1.294-.7,2.514,2.514,0,0,1-.249-1.819l.405-2.949-.9-.124.163-1.184.9.124.194-1.417Z" transform="translate(334 74)" fill="#022a3a"/>
    <path id="Path_649961" data-name="Path 649961" d="M1063.251,165.022l.453-6.316,1.608.115-.454,6.317Zm2.278-7.958a.9.9,0,1,1-.832-.933.847.847,0,0,1,.832.933" transform="translate(334 74)" fill="#022a3a"/>
    <path id="Path_649962" data-name="Path 649962" d="M1073.529,161.982a3.138,3.138,0,0,1-3.2,3.417,3.061,3.061,0,0,1-3.221-3.215,3.126,3.126,0,0,1,3.225-3.4,3.038,3.038,0,0,1,3.2,3.2m-4.771.138c.019,1.222.631,2.136,1.606,2.121.91-.014,1.534-.92,1.514-2.194-.016-.989-.474-2.113-1.566-2.1-1.131.017-1.57,1.116-1.554,2.169" transform="translate(334 74)" fill="#022a3a"/>
    <path id="Path_649963" data-name="Path 649963" d="M1075.469,160.594c-.1-.722-.189-1.326-.3-1.863l1.393-.184.2.931.039-.006a2.285,2.285,0,0,1,1.854-1.347c1.1-.146,2.326.413,2.588,2.4l.495,3.726-1.586.21-.47-3.546c-.12-.9-.546-1.541-1.409-1.426a1.343,1.343,0,0,0-1.116,1.092,1.677,1.677,0,0,0,0,.524l.49,3.688-1.6.212Z" transform="translate(334 74)" fill="#022a3a"/>
    <path id="Path_649964" data-name="Path 649964" d="M1094.077,157.179c-.408-1.056-.9-2.33-1.265-3.456l-.037.012c.067,1.1.1,2.339.077,3.511l-.005,4-1.171.391-2.3-3.18c-.676-.953-1.351-1.989-1.918-2.95l-.026.008c.327,1.1.718,2.433,1.036,3.588l.931,3.4-1.418.474-2.222-8.495,2-.668,2.2,2.979c.621.875,1.21,1.775,1.728,2.629l.037-.012c-.079-.974-.137-2.092-.142-3.173l.034-3.712,1.973-.66,3.257,8.15-1.479.494Z" transform="translate(334 74)" fill="#022a3a"/>
    <path id="Path_649965" data-name="Path 649965" d="M1102.669,157.2l-.4-.583-.035.017a2.349,2.349,0,0,1-1.3,1.588,1.879,1.879,0,0,1-2.618-.806c-.709-1.432.2-2.783,2.3-3.809l-.047-.093c-.185-.373-.642-.915-1.643-.419a3.355,3.355,0,0,0-1.317,1.175l-.741-.793a4.56,4.56,0,0,1,1.8-1.516,2.367,2.367,0,0,1,3.522,1.227l1.015,2.05a10.138,10.138,0,0,0,.757,1.322Zm-1.559-2.679c-1.024.479-1.881,1.178-1.454,2.04a.839.839,0,0,0,1.219.411,1.294,1.294,0,0,0,.73-1.333,1.117,1.117,0,0,0-.108-.338Z" transform="translate(334 74)" fill="#022a3a"/>
    <path id="Path_649966" data-name="Path 649966" d="M1105.427,154.023a3.558,3.558,0,0,0,1.619-.474c.6-.372.709-.779.489-1.132s-.564-.415-1.371-.233c-1.275.29-2.074-.009-2.456-.644a2.119,2.119,0,0,1,.978-2.955,3.69,3.69,0,0,1,1.622-.567l.334,1.124a2.838,2.838,0,0,0-1.328.4c-.487.3-.607.7-.4,1.03s.571.349,1.406.165c1.191-.253,1.953-.038,2.46.749.6.971.284,2.152-1.139,3.04a4.084,4.084,0,0,1-1.866.643Z" transform="translate(334 74)" fill="#022a3a"/>
    <path id="Path_649967" data-name="Path 649967" d="M1108.253,144.1l1.08,1.449,1.22-.909.714.959-1.219.909,1.67,2.24c.458.615.865.814,1.355.449a2.328,2.328,0,0,0,.453-.435l.751.963a3.472,3.472,0,0,1-.834.817,1.848,1.848,0,0,1-1.416.406,2.523,2.523,0,0,1-1.452-1.122l-1.778-2.387-.73.544-.714-.959.729-.543-.854-1.147Z" transform="translate(334 74)" fill="#022a3a"/>
    <path id="Path_649968" data-name="Path 649968" d="M1115.023,145.614a1.72,1.72,0,0,0,2.545-.084,4.776,4.776,0,0,0,1.114-1.384l.912.666a5.939,5.939,0,0,1-1.384,1.766,2.994,2.994,0,0,1-4.563-.2,3.134,3.134,0,0,1,.027-4.6c1.528-1.372,3.16-.565,4.089.47a3.862,3.862,0,0,1,.413.537Zm1.323-2.69a1.362,1.362,0,0,0-2.011-.274,1.564,1.564,0,0,0-.059,2.132Z" transform="translate(334 74)" fill="#022a3a"/>
    <path id="Path_649969" data-name="Path 649969" d="M1118.506,140.171c-.629-.584-1.085-.991-1.53-1.352l.946-1.018.921.785.036-.039a1.886,1.886,0,0,1,.187-2.186,1.692,1.692,0,0,1,.285-.25l1.1,1.027a2.221,2.221,0,0,0-.356.307,1.409,1.409,0,0,0-.088,1.871,2.717,2.717,0,0,0,.326.374l2.4,2.231-1.088,1.17Z" transform="translate(334 74)" fill="#022a3a"/>
    <path id="Path_649970" data-name="Path 649970" d="M1121.233,133.988l3.389,1.159c.388.134.849.324,1.194.474l.023-.031c-.225-.3-.525-.682-.784-1.029l-2.08-2.843,1.045-1.361,2.459,3.887c1.347,2.133,1.825,3.239,1.882,4.233a3.211,3.211,0,0,1-.372,1.829l-1.294-.534a2.776,2.776,0,0,0,.22-1.013,2.806,2.806,0,0,0-.264-1.3.665.665,0,0,0-.164-.257.676.676,0,0,0-.3-.118l-6.02-1.7Z" transform="translate(334 74)" fill="#022a3a"/>
    <path id="Path_649971" data-name="Path 649971" d="M994.554,69.484l-.6,2.423-1.3-.324,1.6-6.423,1.3.324-.61,2.448,7.206,1.795-.387,1.552Z" transform="translate(334 74)" fill="#022a3a"/>
    <path id="Path_649972" data-name="Path 649972" d="M1001.547,57.517c2.752,1.027,3.7,3.282,2.854,5.546-.864,2.314-3.175,3.115-5.586,2.216-2.521-.941-3.707-3.189-2.843-5.5.9-2.4,3.237-3.132,5.575-2.259m-2.166,6.17c1.669.623,3.31.278,3.846-1.158s-.493-2.765-2.21-3.407c-1.547-.577-3.294-.355-3.854,1.142s.526,2.79,2.218,3.423" transform="translate(334 74)" fill="#022a3a"/>
    <path id="Path_649973" data-name="Path 649973" d="M1005,55.084l1.846,1.824-.769,1.461L999.632,51.8l.95-1.806,9.082,1.563-.8,1.519-2.568-.455Zm.1-2.784-2.23-.4c-.551-.1-1.147-.25-1.657-.372l-.011.023c.387.351.868.751,1.255,1.132l1.6,1.6Z" transform="translate(334 74)" fill="#022a3a"/>
    <path id="Path_649974" data-name="Path 649974" d="M1009.024,49.384a4.423,4.423,0,0,0,1.651-1.44c.577-.85.5-1.593-.092-1.994-.549-.372-1.12-.225-2.08.474-1.241.9-2.393,1.236-3.436.528-1.184-.8-1.416-2.4-.352-3.975a4.629,4.629,0,0,1,1.548-1.494l.846,1.044a3.719,3.719,0,0,0-1.321,1.209c-.57.838-.366,1.51.054,1.795.559.379,1.1.135,2.135-.578,1.326-.938,2.377-1.121,3.421-.413,1.161.787,1.574,2.355.306,4.227a5.224,5.224,0,0,1-1.78,1.652Z" transform="translate(334 74)" fill="#022a3a"/>
    <path id="Path_649975" data-name="Path 649975" d="M1009.9,38.538l-1.588,1.925-1.032-.852,4.209-5.1,1.033.852-1.6,1.945,5.723,4.722-1.016,1.234Z" transform="translate(334 74)" fill="#022a3a"/>
    <path id="Path_649976" data-name="Path 649976" d="M1022.051,31.5c-.807-.794-1.782-1.751-2.576-2.628l-.029.026c.514.977,1.051,2.092,1.516,3.167l1.646,3.651-.907.839-3.4-1.951c-1.008-.59-2.05-1.256-2.964-1.9l-.018.018c.749.865,1.656,1.921,2.421,2.843l2.25,2.717-1.1,1.016-5.526-6.825,1.545-1.432,3.234,1.807c.927.542,1.834,1.119,2.659,1.684l.028-.027c-.473-.855-.987-1.849-1.437-2.833l-1.5-3.4,1.525-1.414,6.327,6.084-1.144,1.06Z" transform="translate(334 74)" fill="#022a3a"/>
    <path id="Path_649977" data-name="Path 649977" d="M1027.211,28.883l.8,2.47-1.355.943-2.7-8.794,1.674-1.167,7.345,5.561-1.409.982-2.069-1.584Zm1.367-2.425-1.8-1.377c-.443-.34-.9-.75-1.3-1.091l-.021.015c.182.49.426,1.066.595,1.582l.678,2.156Z" transform="translate(334 74)" fill="#022a3a"/>
    <path id="Path_649978" data-name="Path 649978" d="M1033.439,25.659a4.416,4.416,0,0,0,2.129-.516c.9-.488,1.177-1.183.837-1.812-.316-.582-.89-.715-2.064-.538-1.515.229-2.692-.007-3.292-1.115-.679-1.257-.147-2.786,1.522-3.688a4.622,4.622,0,0,1,2.061-.613l.27,1.317a3.7,3.7,0,0,0-1.73.463c-.891.481-1.02,1.171-.779,1.617.321.594.915.628,2.16.472,1.61-.22,2.625.1,3.225,1.21.667,1.235.31,2.816-1.678,3.891a5.219,5.219,0,0,1-2.34.645Z" transform="translate(334 74)" fill="#022a3a"/>
    <path id="Path_649979" data-name="Path 649979" d="M1039.246,16.417l-2.306.958-.513-1.237,6.112-2.539.514,1.236-2.33.968,2.849,6.857-1.477.614Z" transform="translate(334 74)" fill="#022a3a"/>
    <path id="Path_649980" data-name="Path 649980" d="M1050.74,16.152l-3.163.954.743,2.465,3.536-1.066.38,1.257-5.068,1.528-2.53-8.392,4.881-1.471.379,1.257-3.349,1.01.653,2.166,3.162-.953Z" transform="translate(334 74)" fill="#022a3a"/>
    <path id="Path_649981" data-name="Path 649981" d="M1052.25,10.878a15.139,15.139,0,0,1,2.343-.63,4.06,4.06,0,0,1,2.787.185,2.22,2.22,0,0,1,1.068,1.583,2.338,2.338,0,0,1-1.147,2.455l.006.038a2.228,2.228,0,0,1,1.516,1.432,17.441,17.441,0,0,0,1.134,2.273l-1.623.308a12.265,12.265,0,0,1-.96-1.922c-.457-1.077-.933-1.358-1.832-1.213l-.792.15.672,3.538-1.557.3Zm2.281,3.51.933-.177c1.061-.2,1.618-.89,1.455-1.745-.179-.946-.926-1.254-1.949-1.059a4.612,4.612,0,0,0-.955.26Z" transform="translate(334 74)" fill="#022a3a"/>
    <path id="Path_649982" data-name="Path 649982" d="M1061.273,16.329a4.436,4.436,0,0,0,2.158.383c1.024-.084,1.554-.611,1.495-1.323-.054-.661-.527-1.013-1.674-1.323-1.481-.4-2.463-1.088-2.567-2.345-.118-1.425.984-2.611,2.876-2.767a4.628,4.628,0,0,1,2.135.267l-.283,1.315a3.7,3.7,0,0,0-1.77-.271c-1.011.083-1.406.663-1.364,1.168.055.674.586.943,1.789,1.3,1.562.445,2.364,1.148,2.468,2.4.115,1.4-.847,2.7-3.1,2.89a5.192,5.192,0,0,1-2.4-.35Z" transform="translate(334 74)" fill="#022a3a"/>
    <rect id="Rectangle_18864" data-name="Rectangle 18864" width="8.759" height="1.599" transform="translate(1405.652 91.642) rotate(-87.782)" fill="#022a3a"/>
    <path id="Path_649983" data-name="Path 649983" d="M1075.4,17.765l1.142-8.69,1.8.237,1.754,4.021a24.1,24.1,0,0,1,1.1,3.109l.026,0c.049-1.174.157-2.3.332-3.629l.4-3.03,1.469.193-1.141,8.691-1.638-.216-1.768-4.114a30.649,30.649,0,0,1-1.166-3.209l-.04.008c-.083,1.13-.22,2.279-.409,3.71l-.408,3.107Z" transform="translate(334 74)" fill="#022a3a"/>
    <path id="Path_649984" data-name="Path 649984" d="M1087.781,12.336l-2.42-.609.327-1.3,6.415,1.616-.327,1.3-2.445-.615-1.812,7.2-1.55-.39Z" transform="translate(334 74)" fill="#022a3a"/>
    <path id="Path_649985" data-name="Path 649985" d="M1097.159,18.993l-3.1-1.128-.88,2.42,3.471,1.261-.449,1.235-4.974-1.808,2.993-8.237,4.791,1.74-.449,1.235-3.288-1.2-.772,2.127,3.1,1.128Z" transform="translate(334 74)" fill="#022a3a"/>
    <path id="Path_649986" data-name="Path 649986" d="M1101.56,15.689a15.325,15.325,0,0,1,2.251.9,4.057,4.057,0,0,1,2.12,1.818,2.218,2.218,0,0,1-.093,1.907,2.337,2.337,0,0,1-2.389,1.276l-.017.035a2.229,2.229,0,0,1,.355,2.054,17.681,17.681,0,0,0-.454,2.5l-1.483-.725a12.444,12.444,0,0,1,.383-2.113c.28-1.135.067-1.645-.739-2.068l-.724-.353-1.581,3.233-1.424-.7Zm-.276,4.175.852.417a1.515,1.515,0,0,0,2.21-.526c.421-.864.008-1.557-.925-2.014a4.586,4.586,0,0,0-.922-.363Z" transform="translate(334 74)" fill="#022a3a"/>
    <path id="Path_649987" data-name="Path 649987" d="M1104.589,26.881l4.762-7.353,1.527.989-.143,4.382a24.173,24.173,0,0,1-.342,3.278l.022.015c.548-1.039,1.13-2.009,1.858-3.133l1.66-2.564,1.244.8-4.762,7.354-1.386-.9.171-4.472a30.813,30.813,0,0,1,.326-3.4l-.04-.01c-.559.984-1.177,1.962-1.961,3.173l-1.7,2.629Z" transform="translate(334 74)" fill="#022a3a"/>
    <path id="Path_649988" data-name="Path 649988" d="M1115.016,31.151l-2.161,1.435-1.273-1.05,7.74-4.971,1.574,1.3-3.379,8.568-1.323-1.092.967-2.419Zm2.7.664.842-2.1c.209-.518.478-1.07.7-1.544l-.021-.016c-.422.308-.911.7-1.362,1l-1.894,1.234Z" transform="translate(334 74)" fill="#022a3a"/>
    <path id="Path_649989" data-name="Path 649989" d="M1124.3,32.856l-1.746-1.784.957-.937,4.629,4.73-.957.937L1125.42,34l-5.305,5.193-1.12-1.143Z" transform="translate(334 74)" fill="#022a3a"/>
    <rect id="Rectangle_18865" data-name="Rectangle 18865" width="8.761" height="1.598" transform="matrix(0.767, -0.642, 0.642, 0.767, 1456.707, 116.052)" fill="#022a3a"/>
    <path id="Path_649990" data-name="Path 649990" d="M1133.23,48.791c-2.421,1.663-4.811,1.144-6.179-.849-1.4-2.035-.727-4.387,1.394-5.843,2.217-1.522,4.738-1.2,6.135.832,1.448,2.11.706,4.448-1.35,5.86m-3.807-5.314c-1.468,1.007-2.128,2.548-1.26,3.812s2.546,1.184,4.057.146c1.36-.934,2.182-2.491,1.277-3.809s-2.586-1.171-4.074-.149" transform="translate(334 74)" fill="#022a3a"/>
    <path id="Path_649991" data-name="Path 649991" d="M1130.331,52.736l7.816-3.959.823,1.623-2.329,3.716a24.228,24.228,0,0,1-1.946,2.661l.012.023c1-.621,1.988-1.167,3.183-1.772l2.724-1.381.67,1.322-7.816,3.96-.746-1.473,2.4-3.78a30.739,30.739,0,0,1,1.991-2.772l-.029-.029c-.98.569-2.006,1.1-3.293,1.756l-2.8,1.416Z" transform="translate(334 74)" fill="#022a3a"/>
    <path id="Path_649992" data-name="Path 649992" d="M1137.209,61.685l-2.591.123-.554-1.554,9.19-.3.686,1.922-7.293,5.621-.576-1.615,2.071-1.58Zm1.98,1.956,1.8-1.373c.445-.338.96-.673,1.393-.966l-.008-.025c-.521.048-1.14.131-1.682.158l-2.258.089Z" transform="translate(334 74)" fill="#022a3a"/>
    <path id="Path_649993" data-name="Path 649993" d="M1145.52,66.945l.37,1.556-7.224,1.716.833,3.5-1.3.31-1.2-5.06Z" transform="translate(334 74)" fill="#022a3a"/>
    <path id="Path_649994" data-name="Path 649994" d="M1127.535,88.245a57.877,57.877,0,1,1-57.876-57.876,57.876,57.876,0,0,1,57.876,57.876" transform="translate(334 74)" fill="#fff"/>
    <path id="Path_649995" data-name="Path 649995" d="M1069.659,30.369a57.885,57.885,0,0,0-47.993,90.234,28.115,28.115,0,0,1,1.376-2.71c-.262-.457-.521-.916-.751-1.393a7.705,7.705,0,0,1,1.293-8.628l34.541-37.337A25.061,25.061,0,0,1,1078.764,41.8a25.195,25.195,0,1,1,7.367,49.836,26.159,26.159,0,0,1-3.164.193,25.188,25.188,0,0,1-3.767-.282l-38.4,34.614a6.766,6.766,0,0,1-7.219,1.184l-.014-.006a6.058,6.058,0,0,0-.312,2.284c.07.757.381,1.932,2.264,3.389,3.57,2.758,6.963-.932,8.078-2.145.513-.558,1.027-1.1,1.56-1.63l22.139-21.9a17.251,17.251,0,0,1,24.05-.134l.244.241c8.509,8.509,4.821,19.107.274,24.16a6.766,6.766,0,1,1-10.059-9.053c1.728-2.045,1.831-3.923.244-5.511l-.151-.148a3.652,3.652,0,0,0-5.085.066l-22.135,21.893c-.383.38-.755.78-1.125,1.179a26.575,26.575,0,0,1-3.053,2.83,57.877,57.877,0,1,0,19.157-112.492" transform="translate(334 74)" fill="#022a3a"/>
    <path id="Path_649996" data-name="Path 649996" d="M1065.4,72.212a18.424,18.424,0,1,1,12.1,12.082Z" transform="translate(334 74)" fill="#772432"/>
    <path id="Path_649997" data-name="Path 649997" d="M1065.4,72.212a18.424,18.424,0,1,1,12.1,12.082Z" transform="translate(334 74)" fill="none" stroke="#f2df74" stroke-linecap="round" stroke-width="2"/>
    <path id="Path_649998" data-name="Path 649998" d="M1028.386,113.625h0a15.666,15.666,0,0,0,7.885,7.572l41.082-37.034-11.719-11.719-37.084,40.084a.985.985,0,0,0-.164,1.1" transform="translate(334 74)" fill="#772432"/>
    <path id="Path_649999" data-name="Path 649999" d="M1028.386,113.625h0a15.666,15.666,0,0,0,7.885,7.572l41.082-37.034-11.719-11.719-37.084,40.084A.985.985,0,0,0,1028.386,113.625Z" transform="translate(334 74)" fill="none" stroke="#f2df74" stroke-linecap="round" stroke-linejoin="round" stroke-width="2"/>
    <line id="Line_621" data-name="Line 621" x2="11.034" y2="11.034" transform="translate(1393.66 153.014)" fill="#772432"/>
    <line id="Line_622" data-name="Line 622" x2="11.034" y2="11.034" transform="translate(1393.66 153.014)" fill="none" stroke="#f2df74" stroke-linecap="round" stroke-width="2"/>
    <path id="Path_650000" data-name="Path 650000" d="M1031.382,117.855s-11.045,12.029,0,20.569c7.919,6.124,15.262-.81,17.2-2.916.438-.476.881-.949,1.342-1.4l22.134-21.892a10.406,10.406,0,0,1,14.57-.1q.105.1.21.207c7.02,7.02,0,14.82,0,14.82" transform="translate(334 74)" fill="none" stroke="#f2df74" stroke-linecap="round" stroke-width="2"/>
    <path id="Path_650001" data-name="Path 650001" d="M998.3,87.384A2.387,2.387,0,1,1,995.91,85a2.387,2.387,0,0,1,2.387,2.387" transform="translate(334 74)" fill="#772432"/>
    <path id="Path_650002" data-name="Path 650002" d="M1145.794,87.384A2.387,2.387,0,1,1,1143.407,85a2.387,2.387,0,0,1,2.387,2.387" transform="translate(334 74)" fill="#772432"/>
  </g>
</svg>
