<svg xmlns="http://www.w3.org/2000/svg" width="174.993" height="174.993" viewBox="0 0 174.993 174.993">
  <g id="pathways-badge-visionary-communication" transform="translate(-1630.751 -100.658)">
    <path id="Path_652861" data-name="Path 652861" d="M173.769,87.384A86.384,86.384,0,1,1,87.385,1a86.385,86.385,0,0,1,86.384,86.383" transform="translate(1630.863 100.77)" fill="#fff"/>
    <path id="Path_653923" data-name="Path 653923" d="M86.385,0A86.385,86.385,0,1,1,0,86.385,86.385,86.385,0,0,1,86.385,0Z" transform="translate(1631.752 101.88) rotate(-0.073)" fill="none" stroke="#81caa0" stroke-width="2"/>
    <path id="Path_652862" data-name="Path 652862" d="M22.254,123.365l6.549-6.48.785,1.555L26.574,121.3c-.835.8-1.623,1.518-2.469,2.208l.011.023c1.034-.26,2.127-.462,3.238-.629l4.15-.666.768,1.521L23.08,125Z" transform="translate(1630.863 100.77)" fill="#003042"/>
    <path id="Path_652863" data-name="Path 652863" d="M25.346,129.043l5.38-3.33.847,1.371-5.38,3.329Zm7.778-2.812a.847.847,0,0,1-1.208-.322.839.839,0,0,1,.265-1.2.9.9,0,0,1,.943,1.524" transform="translate(1630.863 100.77)" fill="#003042"/>
    <path id="Path_652864" data-name="Path 652864" d="M28.769,131.689a3.556,3.556,0,0,0,.585,1.583c.412.568.827.653,1.164.409s.374-.592.137-1.384c-.377-1.252-.135-2.07.472-2.494a2.119,2.119,0,0,1,3.015.77,3.723,3.723,0,0,1,.68,1.579l-1.1.411a2.849,2.849,0,0,0-.491-1.3c-.336-.463-.739-.555-1.056-.326s-.308.593-.067,1.413a2.053,2.053,0,0,1-.577,2.506c-.926.671-2.126.433-3.111-.925a4.084,4.084,0,0,1-.771-1.818Z" transform="translate(1630.863 100.77)" fill="#003042"/>
    <path id="Path_652865" data-name="Path 652865" d="M31.462,137.675,36.3,133.6l1.04,1.231L32.5,138.906Zm7.286-3.918a.9.9,0,1,1,.088-1.246.846.846,0,0,1-.088,1.246" transform="translate(1630.863 100.77)" fill="#003042"/>
    <path id="Path_652866" data-name="Path 652866" d="M40.835,142.943a3.136,3.136,0,0,1-4.679.1,3.062,3.062,0,0,1,.053-4.552,3.126,3.126,0,0,1,4.688-.066,3.037,3.037,0,0,1-.062,4.523m-3.428-3.319c-.862.866-1.09,1.942-.4,2.63.645.642,1.729.455,2.628-.447.7-.7,1.181-1.815.408-2.585-.8-.8-1.9-.345-2.638.4" transform="translate(1630.863 100.77)" fill="#003042"/>
    <path id="Path_652867" data-name="Path 652867" d="M43.183,143.368c.451-.571.82-1.06,1.128-1.512l1.1.87-.527.793.031.025a2.281,2.281,0,0,1,2.259.391c.867.685,1.322,1.955.082,3.528l-2.328,2.949-1.256-.99,2.216-2.808c.564-.715.726-1.465.041-2.005a1.343,1.343,0,0,0-1.56-.038,1.639,1.639,0,0,0-.373.368l-2.3,2.919-1.266-1Z" transform="translate(1630.863 100.77)" fill="#003042"/>
    <path id="Path_652868" data-name="Path 652868" d="M50.286,153.9l.282-.65-.033-.022a2.344,2.344,0,0,1-2.034-.271,1.878,1.878,0,0,1-.693-2.65c.845-1.357,2.473-1.292,4.452-.045l.054-.089c.22-.353.441-1.027-.508-1.617a3.358,3.358,0,0,0-1.692-.5l.284-1.048a4.575,4.575,0,0,1,2.238.734,2.367,2.367,0,0,1,.809,3.642l-1.209,1.941a10.1,10.1,0,0,0-.725,1.339Zm1.458-2.735c-.946-.62-1.992-.98-2.5-.164a.839.839,0,0,0,.292,1.253,1.293,1.293,0,0,0,1.519-.08,1.164,1.164,0,0,0,.23-.27Z" transform="translate(1630.863 100.77)" fill="#003042"/>
    <path id="Path_652869" data-name="Path 652869" d="M55.756,152.068c.385-.768.647-1.32.869-1.85l1.244.624-.5,1.105.047.023a1.887,1.887,0,0,1,2.152-.433,1.623,1.623,0,0,1,.321.2l-.677,1.348a2.258,2.258,0,0,0-.4-.256,1.41,1.41,0,0,0-1.821.44,2.749,2.749,0,0,0-.268.418l-1.469,2.931-1.43-.717Z" transform="translate(1630.863 100.77)" fill="#003042"/>
    <path id="Path_652870" data-name="Path 652870" d="M62.431,152.951l-.161,3.575c-.02.41-.072.906-.119,1.279l.036.013c.228-.3.507-.695.766-1.041l2.143-2.793,1.6.621-3.039,3.449c-1.667,1.89-2.593,2.66-3.531,2.993a3.2,3.2,0,0,1-1.858.157l.149-1.392a2.735,2.735,0,0,0,1.033-.073,2.787,2.787,0,0,0,1.172-.618.633.633,0,0,0,.2-.229.675.675,0,0,0,.028-.324l-.056-6.252Z" transform="translate(1630.863 100.77)" fill="#003042"/>
    <path id="Path_652871" data-name="Path 652871" d="M76.024,163.127a5.548,5.548,0,0,1-2.3-.085,4.137,4.137,0,0,1-3.467-5.238A4.409,4.409,0,0,1,75.8,154.24a5.027,5.027,0,0,1,2.007.823l-.607,1.174a4.248,4.248,0,0,0-1.61-.685,2.919,2.919,0,0,0-3.669,2.522,2.877,2.877,0,0,0,2.338,3.723,4.462,4.462,0,0,0,1.772.042Z" transform="translate(1630.863 100.77)" fill="#003042"/>
    <path id="Path_652872" data-name="Path 652872" d="M84.479,161.023a3.137,3.137,0,0,1-3.544,3.054,3.059,3.059,0,0,1-2.858-3.538,3.123,3.123,0,0,1,3.568-3.038,3.035,3.035,0,0,1,2.834,3.522m-4.755-.372c-.112,1.216.4,2.189,1.369,2.279.9.083,1.622-.752,1.738-2.019.091-.984-.246-2.15-1.333-2.25-1.125-.1-1.678.942-1.774,1.99" transform="translate(1630.863 100.77)" fill="#003042"/>
    <path id="Path_652873" data-name="Path 652873" d="M86.6,159.95c-.037-.727-.082-1.337-.148-1.88L87.829,158l.113.931h.039a2.189,2.189,0,0,1,1.891-1.179,1.826,1.826,0,0,1,1.814,1.078h.026a2.4,2.4,0,0,1,.739-.833,2.11,2.11,0,0,1,1.253-.442c1.051-.054,2.153.6,2.257,2.63l.194,3.727-1.559.081-.181-3.493c-.053-1.052-.45-1.656-1.215-1.617a1.22,1.22,0,0,0-1.074.9,2.3,2.3,0,0,0-.05.536l.2,3.792-1.559.08-.189-3.661c-.045-.884-.428-1.488-1.168-1.45a1.248,1.248,0,0,0-1.1.968,1.392,1.392,0,0,0-.064.524l.193,3.739-1.558.081Z" transform="translate(1630.863 100.77)" fill="#003042"/>
    <path id="Path_652874" data-name="Path 652874" d="M98.343,159.137c-.16-.71-.308-1.3-.467-1.827l1.345-.3.269.9.039-.009a2.191,2.191,0,0,1,1.664-1.484,1.826,1.826,0,0,1,1.969.754l.026-.005a2.407,2.407,0,0,1,.586-.946,2.111,2.111,0,0,1,1.159-.648c1.027-.233,2.224.229,2.673,2.208l.823,3.638-1.522.345-.772-3.411c-.232-1.027-.725-1.556-1.473-1.386a1.218,1.218,0,0,0-.9,1.071,2.279,2.279,0,0,0,.042.537l.837,3.7-1.522.344-.808-3.577c-.195-.861-.675-1.392-1.4-1.229a1.25,1.25,0,0,0-.915,1.14,1.39,1.39,0,0,0,.027.527l.826,3.652-1.522.344Z" transform="translate(1630.863 100.77)" fill="#003042"/>
    <path id="Path_652875" data-name="Path 652875" d="M115.9,156.612c.27.7.518,1.276.728,1.753l-1.31.5L114.9,158l-.024.009a2.289,2.289,0,0,1-1.5,1.757c-1.079.414-2.308.149-3.048-1.781L109,154.514l1.492-.572,1.233,3.214c.377.983.935,1.493,1.723,1.19a1.344,1.344,0,0,0,.833-1.238,1.438,1.438,0,0,0-.092-.493l-1.368-3.566,1.492-.574Z" transform="translate(1630.863 100.77)" fill="#003042"/>
    <path id="Path_652876" data-name="Path 652876" d="M117.162,153.242c-.338-.645-.636-1.179-.924-1.644l1.242-.654.512.8.034-.019a2.282,2.282,0,0,1,1.275-1.9c.977-.515,2.323-.415,3.256,1.356l1.752,3.326-1.416.745-1.666-3.164c-.424-.806-1.043-1.258-1.815-.852a1.342,1.342,0,0,0-.669,1.409,1.668,1.668,0,0,0,.185.492l1.732,3.29-1.426.751Z" transform="translate(1630.863 100.77)" fill="#003042"/>
    <path id="Path_652877" data-name="Path 652877" d="M123.639,145.325a.9.9,0,1,1-1.227-.247.855.855,0,0,1,1.227.247m2.96,7.729-3.433-5.32,1.355-.874,3.433,5.32Z" transform="translate(1630.863 100.77)" fill="#003042"/>
    <path id="Path_652878" data-name="Path 652878" d="M133.741,147.72a4.646,4.646,0,0,1-1.231,1.346,3.041,3.041,0,0,1-4.549-.59,3.272,3.272,0,0,1,.757-4.823,3.962,3.962,0,0,1,1.412-.7l.5,1.125a2.829,2.829,0,0,0-1.112.537,2.051,2.051,0,0,0,2.481,3.258,3.126,3.126,0,0,0,.853-.961Z" transform="translate(1630.863 100.77)" fill="#003042"/>
    <path id="Path_652879" data-name="Path 652879" d="M138.2,143.979l-.555-.442-.029.026a2.356,2.356,0,0,1-.792,1.895,1.881,1.881,0,0,1-2.741-.022c-1.09-1.169-.6-2.725,1.117-4.311l-.072-.077c-.283-.3-.877-.692-1.694.071a3.347,3.347,0,0,0-.926,1.5l-.937-.548a4.541,4.541,0,0,1,1.292-1.969,2.366,2.366,0,0,1,3.727.167l1.561,1.673a10.248,10.248,0,0,0,1.1,1.051Zm-2.263-2.12c-.845.752-1.465,1.668-.809,2.372a.839.839,0,0,0,1.286.045,1.3,1.3,0,0,0,.319-1.488,1.175,1.175,0,0,0-.2-.292Z" transform="translate(1630.863 100.77)" fill="#003042"/>
    <path id="Path_652880" data-name="Path 652880" d="M136.169,134.341l1.345,1.207,1.015-1.132.891.8-1.017,1.132,2.08,1.866c.572.513,1.01.627,1.418.172a2.366,2.366,0,0,0,.359-.516l.927.8a3.512,3.512,0,0,1-.657.966,1.846,1.846,0,0,1-1.307.678,2.519,2.519,0,0,1-1.646-.813l-2.215-1.988-.608.677-.89-.8.608-.677-1.065-.955Z" transform="translate(1630.863 100.77)" fill="#003042"/>
    <path id="Path_652881" data-name="Path 652881" d="M139.25,130.667a.9.9,0,1,1-1.239.168.847.847,0,0,1,1.239-.168m5.317,6.34-4.979-3.909,1-1.268,4.979,3.909Z" transform="translate(1630.863 100.77)" fill="#003042"/>
    <path id="Path_652882" data-name="Path 652882" d="M147.812,126.791a3.138,3.138,0,0,1,1.036,4.565,3.061,3.061,0,0,1-4.469.866,3.127,3.127,0,0,1-1.012-4.58,3.039,3.039,0,0,1,4.445-.851m-2.561,4.028c1.022.67,2.123.676,2.657-.141.5-.761.1-1.786-.969-2.484-.827-.542-2.015-.792-2.614.122-.62.946.045,1.926.926,2.5" transform="translate(1630.863 100.77)" fill="#003042"/>
    <path id="Path_652883" data-name="Path 652883" d="M147.755,124.4c-.652-.324-1.205-.585-1.712-.794l.626-1.258.885.354.017-.034a2.288,2.288,0,0,1-.079-2.292c.493-.99,1.644-1.7,3.437-.8l3.364,1.676-.713,1.432-3.2-1.594c-.814-.407-1.582-.411-1.971.369a1.341,1.341,0,0,0,.282,1.535,1.648,1.648,0,0,0,.436.29l3.33,1.659-.719,1.443Z" transform="translate(1630.863 100.77)" fill="#003042"/>
    <path id="Path_652884" data-name="Path 652884" d="M11.915,70.751l-.589,2.426-1.3-.317,1.562-6.43,1.3.316-.6,2.451,7.214,1.751L19.128,72.5Z" transform="translate(1630.863 100.77)" fill="#003042"/>
    <path id="Path_652885" data-name="Path 652885" d="M18.842,58.743c2.759,1.014,3.719,3.265,2.885,5.536-.853,2.319-3.162,3.133-5.579,2.245-2.526-.929-3.725-3.17-2.873-5.489.884-2.4,3.223-3.153,5.567-2.292m-2.134,6.185c1.672.614,3.313.261,3.842-1.18s-.509-2.763-2.23-3.4c-1.55-.569-3.3-.339-3.849,1.163s.54,2.789,2.237,3.413" transform="translate(1630.863 100.77)" fill="#003042"/>
    <path id="Path_652886" data-name="Path 652886" d="M22.271,56.308l1.856,1.812-.759,1.465-6.484-6.524.94-1.81,9.085,1.5-.79,1.523-2.569-.439Zm.081-2.782-2.231-.382c-.551-.1-1.148-.244-1.658-.361l-.011.022c.389.349.872.745,1.261,1.123l1.6,1.593Z" transform="translate(1630.863 100.77)" fill="#003042"/>
    <path id="Path_652887" data-name="Path 652887" d="M26.28,50.547a4.438,4.438,0,0,0,1.644-1.45c.571-.854.49-1.6-.1-1.994-.551-.368-1.121-.219-2.077.486-1.235.91-2.386,1.25-3.435.549-1.187-.8-1.429-2.4-.374-3.975a4.649,4.649,0,0,1,1.539-1.5l.853,1.04a3.707,3.707,0,0,0-1.315,1.216c-.564.843-.356,1.515.065,1.8.561.377,1.1.129,2.132-.591,1.322-.945,2.372-1.135,3.42-.432,1.166.781,1.589,2.346.33,4.226a5.2,5.2,0,0,1-1.77,1.662Z" transform="translate(1630.863 100.77)" fill="#003042"/>
    <path id="Path_652888" data-name="Path 652888" d="M27.1,39.672,25.515,41.6l-1.032-.852,4.209-5.1,1.033.851-1.6,1.946,5.723,4.721-1.016,1.234Z" transform="translate(1630.863 100.77)" fill="#003042"/>
    <path id="Path_652889" data-name="Path 652889" d="M39.186,32.6c-.812-.789-1.793-1.739-2.594-2.61l-.028.026c.521.973,1.065,2.084,1.537,3.156l1.669,3.639-.9.846-3.414-1.929c-1.012-.584-2.058-1.242-2.976-1.878l-.019.018c.754.861,1.668,1.909,2.44,2.827l2.268,2.7L36.08,40.415,30.51,33.63l1.535-1.441,3.245,1.785c.93.534,1.84,1.1,2.669,1.665l.029-.026c-.48-.853-1-1.843-1.456-2.823l-1.521-3.385,1.516-1.425,6.366,6.041-1.138,1.067Z" transform="translate(1630.863 100.77)" fill="#003042"/>
    <path id="Path_652890" data-name="Path 652890" d="M44.334,29.934l.819,2.463-1.35.954-2.765-8.779,1.667-1.179,7.385,5.514-1.4.991-2.082-1.571ZM45.686,27.5l-1.81-1.364c-.445-.338-.907-.744-1.306-1.083l-.022.014c.187.49.434,1.064.607,1.579l.693,2.153Z" transform="translate(1630.863 100.77)" fill="#003042"/>
    <path id="Path_652891" data-name="Path 652891" d="M50.514,26.68a4.435,4.435,0,0,0,2.125-.532c.9-.5,1.168-1.194.823-1.82-.319-.58-.894-.709-2.068-.521-1.515.241-2.692.015-3.3-1.09-.689-1.253-.169-2.785,1.492-3.7a4.643,4.643,0,0,1,2.058-.629l.279,1.314a3.715,3.715,0,0,0-1.725.477c-.889.489-1.012,1.181-.768,1.624.326.593.921.621,2.165.455,1.608-.233,2.626.082,3.234,1.186.678,1.23.334,2.814-1.646,3.9a5.211,5.211,0,0,1-2.336.662Z" transform="translate(1630.863 100.77)" fill="#003042"/>
    <path id="Path_652892" data-name="Path 652892" d="M56.27,17.389l-2.3.976-.523-1.232,6.089-2.587.523,1.233-2.32.985,2.9,6.831-1.472.625Z" transform="translate(1630.863 100.77)" fill="#003042"/>
    <path id="Path_652893" data-name="Path 652893" d="M67.758,17.035l-3.155.977.761,2.46,3.528-1.092.388,1.254L64.225,22.2l-2.592-8.372L66.5,12.32l.389,1.254-3.342,1.035.669,2.161,3.155-.977Z" transform="translate(1630.863 100.77)" fill="#003042"/>
    <path id="Path_652894" data-name="Path 652894" d="M69.243,11.738a15.141,15.141,0,0,1,2.337-.651,4.056,4.056,0,0,1,2.79.163,2.214,2.214,0,0,1,1.082,1.575,2.338,2.338,0,0,1-1.128,2.465l.007.038a2.228,2.228,0,0,1,1.529,1.421,17.528,17.528,0,0,0,1.152,2.263l-1.62.322a12.387,12.387,0,0,1-.977-1.915c-.465-1.074-.944-1.35-1.842-1.2l-.79.156.7,3.535-1.557.308Zm2.311,3.492.932-.186c1.058-.21,1.61-.9,1.44-1.757-.187-.944-.936-1.246-1.957-1.043a4.589,4.589,0,0,0-.954.268Z" transform="translate(1630.863 100.77)" fill="#003042"/>
    <path id="Path_652895" data-name="Path 652895" d="M78.307,17.122a4.419,4.419,0,0,0,2.159.365c1.023-.093,1.548-.623,1.484-1.335-.06-.66-.536-1.008-1.684-1.308-1.483-.387-2.472-1.067-2.586-2.323-.129-1.422.963-2.618,2.852-2.789a4.633,4.633,0,0,1,2.136.249L82.4,11.3a3.705,3.705,0,0,0-1.772-.257c-1.008.092-1.4.675-1.353,1.18.06.672.594.937,1.8,1.285,1.565.431,2.372,1.128,2.486,2.383.127,1.4-.824,2.711-3.075,2.915a5.2,5.2,0,0,1-2.4-.33Z" transform="translate(1630.863 100.77)" fill="#003042"/>
    <rect id="Rectangle_19049" data-name="Rectangle 19049" width="8.767" height="1.6" transform="translate(1719.557 119.118) rotate(-88.255)" fill="#003042"/>
    <path id="Path_652896" data-name="Path 652896" d="M92.435,18.439l1.069-8.7,1.807.221L97.1,13.967a24.094,24.094,0,0,1,1.126,3.1l.025,0c.04-1.175.139-2.3.3-3.632l.373-3.034,1.472.18-1.07,8.7-1.639-.2-1.8-4.1a30.666,30.666,0,0,1-1.192-3.2l-.04.008c-.073,1.131-.2,2.282-.378,3.714l-.383,3.112Z" transform="translate(1630.863 100.77)" fill="#003042"/>
    <path id="Path_652897" data-name="Path 652897" d="M104.783,12.9l-2.426-.589.316-1.3,6.43,1.562-.315,1.3-2.451-.6-1.751,7.214-1.554-.377Z" transform="translate(1630.863 100.77)" fill="#003042"/>
    <path id="Path_652898" data-name="Path 652898" d="M114.228,19.48l-3.112-1.1-.859,2.426,3.481,1.232-.439,1.237-4.986-1.764,2.921-8.259,4.8,1.7-.438,1.237-3.3-1.166-.754,2.132,3.113,1.1Z" transform="translate(1630.863 100.77)" fill="#003042"/>
    <path id="Path_652899" data-name="Path 652899" d="M118.553,16.108a15.192,15.192,0,0,1,2.261.874,4.058,4.058,0,0,1,2.139,1.8,2.212,2.212,0,0,1-.073,1.907,2.335,2.335,0,0,1-2.375,1.3l-.017.035a2.232,2.232,0,0,1,.377,2.051,17.459,17.459,0,0,0-.428,2.5l-1.49-.709a12.311,12.311,0,0,1,.359-2.117c.269-1.139.05-1.646-.76-2.061l-.728-.345-1.547,3.25-1.431-.682Zm-.232,4.178.856.408a1.515,1.515,0,0,0,2.205-.549c.413-.868-.007-1.557-.947-2.005a4.545,4.545,0,0,0-.925-.353Z" transform="translate(1630.863 100.77)" fill="#003042"/>
    <path id="Path_652900" data-name="Path 652900" d="M121.73,27.29l4.689-7.405,1.539.974-.1,4.386a24.062,24.062,0,0,1-.309,3.282l.022.015c.539-1.045,1.111-2.022,1.828-3.153l1.635-2.581,1.252.793L127.6,31l-1.394-.884.125-4.477a30.729,30.729,0,0,1,.292-3.4l-.04-.01c-.55.991-1.159,1.976-1.931,3.195l-1.677,2.648Z" transform="translate(1630.863 100.77)" fill="#003042"/>
    <path id="Path_652901" data-name="Path 652901" d="M132.211,31.445l-2.161,1.437-1.276-1.049,7.744-4.982,1.576,1.3-3.376,8.578-1.325-1.092.967-2.422Zm2.707.662.841-2.1c.209-.519.478-1.072.7-1.546l-.021-.017c-.422.309-.912.7-1.363,1l-1.894,1.237Z" transform="translate(1630.863 100.77)" fill="#003042"/>
    <path id="Path_652902" data-name="Path 652902" d="M141.456,33.024l-1.767-1.764.947-.948,4.683,4.676-.946.947-1.785-1.781-5.245,5.253-1.132-1.13Z" transform="translate(1630.863 100.77)" fill="#003042"/>
    <rect id="Rectangle_19050" data-name="Rectangle 19050" width="8.759" height="1.598" transform="translate(1770.867 143.05) rotate(-40.569)" fill="#003042"/>
    <path id="Path_652903" data-name="Path 652903" d="M150.6,48.907c-2.4,1.69-4.8,1.2-6.19-.781-1.42-2.02-.776-4.381,1.33-5.861,2.2-1.548,4.726-1.257,6.147.763,1.473,2.1.755,4.444-1.287,5.879m-3.867-5.275c-1.457,1.024-2.1,2.573-1.218,3.828s2.561,1.156,4.061.1c1.35-.95,2.155-2.517,1.236-3.825s-2.6-1.144-4.079-.1" transform="translate(1630.863 100.77)" fill="#003042"/>
    <path id="Path_652904" data-name="Path 652904" d="M147.734,52.866l7.775-4.052.842,1.614-2.288,3.746a24.265,24.265,0,0,1-1.916,2.685l.013.023c.989-.633,1.975-1.191,3.163-1.81l2.711-1.413.685,1.314-7.774,4.053-.764-1.465,2.357-3.81a30.081,30.081,0,0,1,1.96-2.8l-.03-.029c-.973.581-1.994,1.128-3.274,1.794l-2.78,1.45Z" transform="translate(1630.863 100.77)" fill="#003042"/>
    <path id="Path_652905" data-name="Path 652905" d="M154.707,61.713l-2.59.156-.574-1.549,9.193-.41.709,1.914-7.228,5.714-.6-1.61,2.053-1.606Zm2.006,1.933,1.784-1.4c.442-.343.952-.685,1.383-.984l-.009-.024c-.52.054-1.138.144-1.68.179l-2.259.116Z" transform="translate(1630.863 100.77)" fill="#003042"/>
    <path id="Path_652906" data-name="Path 652906" d="M163.079,66.9l.389,1.55-7.2,1.8.875,3.491-1.3.325-1.263-5.041Z" transform="translate(1630.863 100.77)" fill="#003042"/>
    <path id="Path_652907" data-name="Path 652907" d="M145.208,89.233c0,32.771-25.888,59.336-57.823,59.336S29.561,122,29.561,89.233,55.45,29.9,87.385,29.9s57.823,26.565,57.823,59.336" transform="translate(1630.863 100.77)" fill="#fff"/>
    <path id="Path_652908" data-name="Path 652908" d="M73.665,97.339v11.4H64.72v-9.7" transform="translate(1630.863 100.77)" fill="#81caa0"/>
    <path id="Path_652909" data-name="Path 652909" d="M73.665,97.339v11.4H64.72v-9.7" transform="translate(1630.863 100.77)" fill="none" stroke="#006c99" stroke-miterlimit="10" stroke-width="2"/>
    <path id="Path_652910" data-name="Path 652910" d="M81.1,144.065l-8.513-23.339,5.32-1.343,10.234,25.37Z" transform="translate(1630.863 100.77)" fill="#81caa0"/>
    <path id="Path_652911" data-name="Path 652911" d="M81.1,144.065l-8.513-23.339,5.32-1.343,10.234,25.37Z" transform="translate(1630.863 100.77)" fill="none" stroke="#006c99" stroke-miterlimit="10" stroke-width="2"/>
    <path id="Path_652912" data-name="Path 652912" d="M75.518,119.6H62.868a2.882,2.882,0,0,1-2.882-2.882v-5.1a2.882,2.882,0,0,1,2.882-2.882h12.65a2.882,2.882,0,0,1,2.882,2.882v5.1a2.882,2.882,0,0,1-2.882,2.882" transform="translate(1630.863 100.77)" fill="#81caa0"/>
    <rect id="Rectangle_19051" data-name="Rectangle 19051" width="18.414" height="10.859" rx="2.882" transform="translate(1690.85 209.505)" fill="none" stroke="#006c99" stroke-miterlimit="10" stroke-width="2"/>
    <path id="Path_652913" data-name="Path 652913" d="M86.426,95.093,56.3,100.821a2.524,2.524,0,0,1-2.951-2.009L50.39,83.253A2.524,2.524,0,0,1,52.4,80.3l30.127-5.727" transform="translate(1630.863 100.77)" fill="#81caa0"/>
    <path id="Path_652914" data-name="Path 652914" d="M86.426,95.093,56.3,100.821a2.524,2.524,0,0,1-2.951-2.009L50.39,83.253A2.524,2.524,0,0,1,52.4,80.3l30.127-5.727" transform="translate(1630.863 100.77)" fill="none" stroke="#006c99" stroke-linecap="round" stroke-linejoin="round" stroke-width="2"/>
    <path id="Path_652915" data-name="Path 652915" d="M30.973,90.489l20.066-3.815L52.7,95.392,32.63,99.207" transform="translate(1630.863 100.77)" fill="#81caa0"/>
    <path id="Path_652916" data-name="Path 652916" d="M30.973,90.489l20.066-3.815L52.7,95.392,32.63,99.207" transform="translate(1630.863 100.77)" fill="none" stroke="#006c99" stroke-miterlimit="10" stroke-width="2"/>
    <path id="Path_652917" data-name="Path 652917" d="M32.033,102.007l-2.343.445a1.11,1.11,0,0,1-1.3-.883l-2.3-12.089a1.109,1.109,0,0,1,.883-1.3l2.343-.446a1.111,1.111,0,0,1,1.3.883l2.3,12.089a1.11,1.11,0,0,1-.883,1.3" transform="translate(1630.863 100.77)" fill="#81caa0"/>
    <path id="Rectangle_19052" data-name="Rectangle 19052" d="M1.11,0H3.5a1.11,1.11,0,0,1,1.11,1.11V13.416A1.109,1.109,0,0,1,3.5,14.525H1.11A1.11,1.11,0,0,1,0,13.415V1.11A1.11,1.11,0,0,1,1.11,0Z" transform="matrix(0.982, -0.187, 0.187, 0.982, 1656.752, 189.159)" fill="none" stroke="#006c99" stroke-miterlimit="10" stroke-width="2"/>
    <path id="Path_652918" data-name="Path 652918" d="M145.146,94.277l-2.343.445a1.11,1.11,0,0,1-1.3-.883l-7.283-38.311a1.11,1.11,0,0,1,.883-1.3l2.343-.445a1.11,1.11,0,0,1,1.3.883l7.283,38.311a1.11,1.11,0,0,1-.883,1.3" transform="translate(1630.863 100.77)" fill="#81caa0"/>
    <path id="Path_652919" data-name="Path 652919" d="M145.146,94.277l-2.343.445a1.11,1.11,0,0,1-1.3-.883l-7.283-38.311a1.11,1.11,0,0,1,.883-1.3l2.343-.445a1.11,1.11,0,0,1,1.3.883l7.283,38.311A1.11,1.11,0,0,1,145.146,94.277Z" transform="translate(1630.863 100.77)" fill="none" stroke="#006c99" stroke-miterlimit="10" stroke-width="2"/>
    <path id="Path_652920" data-name="Path 652920" d="M140.795,90.1l-51.36,9.765a2.067,2.067,0,0,1-2.414-1.643L81.929,71.443a2.065,2.065,0,0,1,1.643-2.414l51.36-9.764Z" transform="translate(1630.863 100.77)" fill="#81caa0"/>
    <path id="Path_652921" data-name="Path 652921" d="M140.795,90.1l-51.36,9.765a2.067,2.067,0,0,1-2.414-1.643L81.929,71.443a2.065,2.065,0,0,1,1.643-2.414l51.36-9.764Z" transform="translate(1630.863 100.77)" fill="none" stroke="#006c99" stroke-linecap="round" stroke-linejoin="round" stroke-width="2"/>
    <path id="Path_652922" data-name="Path 652922" d="M65.979,141.832V119.7h5.991l-.006,24.044Z" transform="translate(1630.863 100.77)" fill="#81caa0"/>
    <path id="Path_652923" data-name="Path 652923" d="M65.979,141.832V119.7h5.991l-.006,24.044Z" transform="translate(1630.863 100.77)" fill="none" stroke="#006c99" stroke-miterlimit="10" stroke-width="2"/>
    <path id="Path_652924" data-name="Path 652924" d="M59.134,138.968,54.2,135.7,60.129,118.6l5.849,1.1Z" transform="translate(1630.863 100.77)" fill="#81caa0"/>
    <path id="Path_652925" data-name="Path 652925" d="M59.134,138.968,54.2,135.7,60.129,118.6l5.849,1.1Z" transform="translate(1630.863 100.77)" fill="none" stroke="#006c99" stroke-miterlimit="10" stroke-width="2"/>
    <path id="Path_652926" data-name="Path 652926" d="M52.55,119.115v-1.751a11.571,11.571,0,0,1,1.971-6.472,9.236,9.236,0,0,1-7.766-4.73L32.371,108.9a57.783,57.783,0,0,0,17.182,25.182l3.879-10.529a11.573,11.573,0,0,1-.882-4.435" transform="translate(1630.863 100.77)" fill="#003042"/>
    <path id="Path_652927" data-name="Path 652927" d="M50.445,72.972l26.392-5.018a10.26,10.26,0,0,1,7.91-7.167l45.274-8.607a8.645,8.645,0,0,1,1.029-2.52A57.7,57.7,0,0,0,29.819,83.37l13.056-2.483a9.451,9.451,0,0,1,7.57-7.915" transform="translate(1630.863 100.77)" fill="#003042"/>
    <path id="Path_652928" data-name="Path 652928" d="M138.8,101.782,93.486,110.4a10.175,10.175,0,0,1-9.964-3.767L81,107.109V108.7a11.633,11.633,0,0,1,5.015,9.561v1.751a11.572,11.572,0,0,1-.872,4.407l8.824,23.948a57.757,57.757,0,0,0,49.394-43.23,8.661,8.661,0,0,1-4.559-3.358" transform="translate(1630.863 100.77)" fill="#003042"/>
    <path id="Path_652929" data-name="Path 652929" d="M16.023,87.384A2.387,2.387,0,1,1,13.636,85a2.387,2.387,0,0,1,2.387,2.387" transform="translate(1630.863 100.77)" fill="#006c99"/>
    <path id="Path_652930" data-name="Path 652930" d="M163.52,87.384A2.387,2.387,0,1,1,161.133,85a2.387,2.387,0,0,1,2.387,2.387" transform="translate(1630.863 100.77)" fill="#006c99"/>
  </g>
</svg>
